Armada-Condensed_Bold.ufo
<glyph name="exclam" format="1">
  <advance width="221"/>
  <unicode hex="0021"/>
  <outline>
    <contour>
      <point x="189" y="186" type="line"/>
      <point x="32" y="186" type="line"/>
      <point x="32" y="720" type="line"/>
      <point x="189" y="720" type="line"/>
    </contour>
    <contour>
      <point x="190" y="0" type="line"/>
      <point x="31" y="0" type="line"/>
      <point x="31" y="143" type="line"/>
      <point x="190" y="143" type="line"/>
    </contour>
  </outline>
</glyph>
<glyph name="quotedbl" format="1">
  <advance width="425"/>
  <unicode hex="0022"/>
  <outline>
    <contour>
      <point x="392" y="435" type="line"/>
      <point x="241" y="435" type="line"/>
      <point x="241" y="720" type="line"/>
      <point x="392" y="720" type="line"/>
    </contour>
    <contour>
      <point x="184" y="435" type="line"/>
      <point x="34" y="435" type="line"/>
      <point x="34" y="720" type="line"/>
      <point x="184" y="720" type="line"/>
    </contour>
  </outline>
</glyph>
<glyph name="numbersign" format="1">
  <advance width="522"/>
  <unicode hex="0023"/>
  <outline>
    <contour>
      <point x="497" y="175" type="line"/>
      <point x="440" y="175" type="line"/>
      <point x="440" y="0" type="line"/>
      <point x="297" y="0" type="line"/>
      <point x="297" y="175" type="line"/>
      <point x="223" y="175" type="line"/>
      <point x="223" y="0" type="line"/>
      <point x="80" y="0" type="line"/>
      <point x="80" y="175" type="line"/>
      <point x="23" y="175" type="line"/>
      <point x="23" y="288" type="line"/>
      <point x="80" y="288" type="line"/>
      <point x="80" y="436" type="line"/>
      <point x="23" y="436" type="line"/>
      <point x="23" y="547" type="line"/>
      <point x="80" y="547" type="line"/>
      <point x="80" y="720" type="line"/>
      <point x="223" y="720" type="line"/>
      <point x="223" y="547" type="line"/>
      <point x="297" y="547" type="line"/>
      <point x="297" y="720" type="line"/>
      <point x="440" y="720" type="line"/>
      <point x="440" y="547" type="line"/>
      <point x="497" y="547" type="line"/>
      <point x="497" y="436" type="line"/>
      <point x="440" y="436" type="line"/>
      <point x="440" y="288" type="line"/>
      <point x="497" y="288" type="line"/>
    </contour>
    <contour>
      <point x="299" y="281" type="line"/>
      <point x="299" y="442" type="line"/>
      <point x="222" y="442" type="line"/>
      <point x="222" y="281" type="line"/>
    </contour>
  </outline>
</glyph>
<glyph name="dollar" format="1">
  <advance width="485"/>
  <unicode hex="0024"/>
  <outline>
    <contour>
      <point x="456" y="39" type="line"/>
      <point x="416" y="17"/>
      <point x="370" y="4"/>
      <point x="323" y="-1" type="curve"/>
      <point x="323" y="-85" type="line"/>
      <point x="166" y="-85" type="line"/>
      <point x="166" y="-1" type="line"/>
      <point x="119" y="4"/>
      <point x="73" y="16"/>
      <point x="32" y="39" type="curve"/>
      <point x="32" y="256" type="line"/>
      <point x="187" y="256" type="line"/>
      <point x="187" y="111" type="line"/>
      <point x="205" y="106"/>
      <point x="221" y="103"/>
      <point x="244" y="103" type="curve" smooth="yes"/>
      <point x="267" y="103"/>
      <point x="284" y="106"/>
      <point x="301" y="111" type="curve"/>
      <point x="301" y="275" type="line"/>
      <point x="33" y="356" type="line"/>
      <point x="33" y="682" type="line"/>
      <point x="73" y="703"/>
      <point x="118" y="716"/>
      <point x="165" y="721" type="curve"/>
      <point x="165" y="796" type="line"/>
      <point x="322" y="796" type="line"/>
      <point x="322" y="721" type="line"/>
      <point x="369" y="716"/>
      <point x="414" y="704"/>
      <point x="455" y="682" type="curve"/>
      <point x="455" y="464" type="line"/>
      <point x="301" y="464" type="line"/>
      <point x="301" y="608" type="line"/>
      <point x="283" y="614"/>
      <point x="267" y="617"/>
      <point x="244" y="617" type="curve" smooth="yes"/>
      <point x="221" y="617"/>
      <point x="205" y="614"/>
      <point x="188" y="608" type="curve"/>
      <point x="188" y="448" type="line"/>
      <point x="456" y="368" type="line"/>
    </contour>
  </outline>
</glyph>
<glyph name="percent" format="1">
  <advance width="923"/>
  <unicode hex="0025"/>
  <outline>
    <contour>
      <point x="892" y="30" type="line"/>
      <point x="846" y="5"/>
      <point x="786" y="-8"/>
      <point x="729" y="-8" type="curve" smooth="yes"/>
      <point x="672" y="-8"/>
      <point x="613" y="5"/>
      <point x="566" y="30" type="curve"/>
      <point x="566" y="361" type="line"/>
      <point x="612" y="386"/>
      <point x="672" y="400"/>
      <point x="729" y="400" type="curve" smooth="yes"/>
      <point x="785" y="400"/>
      <point x="845" y="386"/>
      <point x="892" y="361" type="curve"/>
    </contour>
    <contour>
      <point x="624" y="720" type="line"/>
      <point x="447" y="0" type="line"/>
      <point x="298" y="0" type="line"/>
      <point x="475" y="720" type="line"/>
    </contour>
    <contour>
      <point x="357" y="359" type="line"/>
      <point x="311" y="335"/>
      <point x="252" y="320"/>
      <point x="194" y="320" type="curve" smooth="yes"/>
      <point x="137" y="320"/>
      <point x="78" y="334"/>
      <point x="31" y="359" type="curve"/>
      <point x="31" y="690" type="line"/>
      <point x="77" y="715"/>
      <point x="137" y="729"/>
      <point x="194" y="729" type="curve" smooth="yes"/>
      <point x="251" y="729"/>
      <point x="310" y="716"/>
      <point x="357" y="690" type="curve"/>
    </contour>
    <contour>
      <point x="769" y="85" type="curve"/>
      <point x="769" y="302" type="line"/>
      <point x="758" y="306"/>
      <point x="745" y="309"/>
      <point x="729" y="309" type="curve" smooth="yes"/>
      <point x="713" y="309"/>
      <point x="700" y="306"/>
      <point x="689" y="302" type="curve"/>
      <point x="689" y="85" type="line"/>
      <point x="700" y="80"/>
      <point x="713" y="78"/>
      <point x="729" y="78" type="curve" smooth="yes"/>
      <point x="745" y="78"/>
      <point x="758" y="80"/>
    </contour>
    <contour>
      <point x="233" y="414" type="curve"/>
      <point x="233" y="630" type="line"/>
      <point x="223" y="635"/>
      <point x="210" y="637"/>
      <point x="194" y="637" type="curve" smooth="yes"/>
      <point x="179" y="637"/>
      <point x="165" y="635"/>
      <point x="154" y="630" type="curve"/>
      <point x="154" y="414" type="line"/>
      <point x="165" y="408"/>
      <point x="179" y="406"/>
      <point x="194" y="406" type="curve" smooth="yes"/>
      <point x="210" y="406"/>
      <point x="223" y="408"/>
    </contour>
  </outline>
</glyph>
<glyph name="ampersand" format="1">
  <advance width="538"/>
  <unicode hex="0026"/>
  <outline>
    <contour>
      <point x="521" y="307" type="line"/>
      <point x="479" y="307" type="line"/>
      <point x="479" y="38" type="line"/>
      <point x="418" y="7"/>
      <point x="340" y="-6"/>
      <point x="255" y="-6" type="curve" smooth="yes"/>
      <point x="174" y="-6"/>
      <point x="88" y="10"/>
      <point x="31" y="46" type="curve"/>
      <point x="31" y="334" type="line"/>
      <point x="53" y="350"/>
      <point x="93" y="364"/>
      <point x="133" y="369" type="curve"/>
      <point x="93" y="376"/>
      <point x="56" y="388"/>
      <point x="34" y="403" type="curve"/>
      <point x="34" y="677" type="line"/>
      <point x="92" y="712"/>
      <point x="177" y="729"/>
      <point x="257" y="729" type="curve" smooth="yes"/>
      <point x="341" y="729"/>
      <point x="418" y="716"/>
      <point x="480" y="684" type="curve"/>
      <point x="480" y="463" type="line"/>
      <point x="318" y="463" type="line"/>
      <point x="318" y="610" type="line"/>
      <point x="301" y="616"/>
      <point x="282" y="618"/>
      <point x="256" y="618" type="curve" smooth="yes"/>
      <point x="235" y="618"/>
      <point x="210" y="615"/>
      <point x="195" y="607" type="curve"/>
      <point x="195" y="436" type="line"/>
      <point x="212" y="426"/>
      <point x="232" y="422"/>
      <point x="265" y="422" type="curve" smooth="yes"/>
      <point x="521" y="422" type="line"/>
    </contour>
    <contour>
      <point x="319" y="104" type="curve"/>
      <point x="319" y="314" type="line"/>
      <point x="318" y="314"/>
      <point x="264" y="314"/>
      <point x="263" y="314" type="curve" smooth="yes"/>
      <point x="229" y="314"/>
      <point x="210" y="310"/>
      <point x="193" y="300" type="curve"/>
      <point x="193" y="107" type="line"/>
      <point x="207" y="100"/>
      <point x="233" y="97"/>
      <point x="255" y="97" type="curve" smooth="yes"/>
      <point x="278" y="97"/>
      <point x="304" y="98"/>
    </contour>
  </outline>
</glyph>
<glyph name="quotesingle" format="1">
  <advance width="222"/>
  <unicode hex="0027"/>
  <outline>
    <contour>
      <point x="188" y="435" type="line"/>
      <point x="34" y="435" type="line"/>
      <point x="34" y="720" type="line"/>
      <point x="188" y="720" type="line"/>
    </contour>
  </outline>
</glyph>
<glyph name="parenleft" format="1">
  <advance width="293"/>
  <unicode hex="0028"/>
  <outline>
    <contour>
      <point x="264" y="-4" type="line"/>
      <point x="161" y="-4"/>
      <point x="93" y="16"/>
      <point x="35" y="53" type="curve"/>
      <point x="35" y="667" type="line"/>
      <point x="93" y="703"/>
      <point x="161" y="724"/>
      <point x="264" y="724" type="curve"/>
      <point x="264" y="595" type="line"/>
      <point x="237" y="595"/>
      <point x="207" y="590"/>
      <point x="190" y="582" type="curve"/>
      <point x="190" y="138" type="line"/>
      <point x="208" y="130"/>
      <point x="237" y="125"/>
      <point x="264" y="125" type="curve"/>
    </contour>
  </outline>
</glyph>
<glyph name="parenright" format="1">
  <advance width="293"/>
  <unicode hex="0029"/>
  <outline>
    <contour>
      <point x="258" y="53" type="line"/>
      <point x="200" y="17"/>
      <point x="132" y="-4"/>
      <point x="28" y="-4" type="curve"/>
      <point x="28" y="125" type="line"/>
      <point x="56" y="125"/>
      <point x="85" y="130"/>
      <point x="103" y="138" type="curve"/>
      <point x="103" y="582" type="line"/>
      <point x="85" y="590"/>
      <point x="56" y="595"/>
      <point x="28" y="595" type="curve"/>
      <point x="28" y="724" type="line"/>
      <point x="132" y="724"/>
      <point x="199" y="704"/>
      <point x="258" y="667" type="curve"/>
    </contour>
  </outline>
</glyph>
<glyph name="asterisk" format="1">
  <advance width="560"/>
  <unicode hex="002A"/>
  <outline>
    <contour>
      <point x="527" y="246" type="line"/>
      <point x="390" y="246" type="line"/>
      <point x="390" y="379" type="line"/>
      <point x="381" y="385"/>
      <point x="366" y="390"/>
      <point x="347" y="392" type="curve"/>
      <point x="347" y="174" type="line"/>
      <point x="213" y="174" type="line"/>
      <point x="213" y="392" type="line"/>
      <point x="193" y="390"/>
      <point x="179" y="385"/>
      <point x="169" y="379" type="curve"/>
      <point x="169" y="246" type="line"/>
      <point x="32" y="246" type="line"/>
      <point x="32" y="415" type="line"/>
      <point x="53" y="430"/>
      <point x="89" y="441"/>
      <point x="124" y="448" type="curve"/>
      <point x="89" y="455"/>
      <point x="53" y="467"/>
      <point x="32" y="482" type="curve"/>
      <point x="32" y="650" type="line"/>
      <point x="169" y="650" type="line"/>
      <point x="169" y="517" type="line"/>
      <point x="179" y="511"/>
      <point x="193" y="506"/>
      <point x="213" y="504" type="curve"/>
      <point x="213" y="721" type="line"/>
      <point x="347" y="721" type="line"/>
      <point x="347" y="504" type="line"/>
      <point x="366" y="506"/>
      <point x="381" y="511"/>
      <point x="390" y="517" type="curve"/>
      <point x="390" y="650" type="line"/>
      <point x="527" y="650" type="line"/>
      <point x="527" y="483" type="line"/>
      <point x="506" y="467"/>
      <point x="471" y="455"/>
      <point x="435" y="448" type="curve"/>
      <point x="471" y="442"/>
      <point x="506" y="430"/>
      <point x="527" y="415" type="curve"/>
    </contour>
  </outline>
</glyph>
<glyph name="plus" format="1">
  <advance width="366"/>
  <unicode hex="002B"/>
  <outline>
    <contour>
      <point x="348" y="310" type="line"/>
      <point x="250" y="310" type="line"/>
      <point x="250" y="190" type="line"/>
      <point x="116" y="190" type="line"/>
      <point x="116" y="310" type="line"/>
      <point x="18" y="310" type="line"/>
      <point x="18" y="432" type="line"/>
      <point x="116" y="432" type="line"/>
      <point x="116" y="551" type="line"/>
      <point x="250" y="551" type="line"/>
      <point x="250" y="432" type="line"/>
      <point x="348" y="432" type="line"/>
    </contour>
  </outline>
</glyph>
<glyph name="comma" format="1">
  <advance width="208"/>
  <unicode hex="002C"/>
  <outline>
    <contour>
      <point x="186" y="152" type="line"/>
      <point x="161" y="-74" type="line"/>
      <point x="12" y="-74" type="line"/>
      <point x="37" y="152" type="line"/>
    </contour>
  </outline>
</glyph>
<glyph name="hyphen" format="1">
  <advance width="248"/>
  <unicode hex="002D"/>
  <unicode hex="2010"/>
  <unicode hex="2011"/>
  <outline>
    <contour>
      <point x="232" y="244" type="line"/>
      <point x="17" y="244" type="line"/>
      <point x="17" y="367" type="line"/>
      <point x="232" y="367" type="line"/>
    </contour>
  </outline>
</glyph>
<glyph name="zero" format="1">
  <advance width="515"/>
  <unicode hex="0030"/>
  <outline>
    <contour>
      <point x="479" y="44" type="line"/>
      <point x="419" y="9"/>
      <point x="337" y="-9"/>
      <point x="257" y="-9" type="curve" smooth="yes"/>
      <point x="177" y="-9"/>
      <point x="96" y="9"/>
      <point x="35" y="44" type="curve"/>
      <point x="35" y="677" type="line"/>
      <point x="96" y="711"/>
      <point x="177" y="729"/>
      <point x="257" y="729" type="curve" smooth="yes"/>
      <point x="337" y="729"/>
      <point x="419" y="711"/>
      <point x="479" y="677" type="curve"/>
    </contour>
    <contour>
      <point x="320" y="121" type="curve"/>
      <point x="320" y="599" type="line"/>
      <point x="303" y="607"/>
      <point x="283" y="610"/>
      <point x="257" y="610" type="curve" smooth="yes"/>
      <point x="231" y="610"/>
      <point x="211" y="607"/>
      <point x="194" y="599" type="curve"/>
      <point x="194" y="121" type="line"/>
      <point x="211" y="113"/>
      <point x="231" y="109"/>
      <point x="257" y="109" type="curve" smooth="yes"/>
      <point x="283" y="109"/>
      <point x="303" y="113"/>
    </contour>
  </outline>
</glyph>
<glyph name="one" format="1">
  <advance width="336"/>
  <unicode hex="0031"/>
  <outline>
    <contour>
      <point x="317" y="0" type="line"/>
      <point x="22" y="0" type="line"/>
      <point x="22" y="130" type="line"/>
      <point x="90" y="130" type="line"/>
      <point x="90" y="590" type="line"/>
      <point x="25" y="590" type="line"/>
      <point x="25" y="720" type="line"/>
      <point x="250" y="720" type="line"/>
      <point x="250" y="130" type="line"/>
      <point x="317" y="130" type="line"/>
    </contour>
  </outline>
</glyph>
<glyph name="two" format="1">
  <advance width="482"/>
  <unicode hex="0032"/>
  <outline>
    <contour>
      <point x="452" y="0" type="line"/>
      <point x="25" y="0" type="line"/>
      <point x="25" y="145" type="line"/>
      <point x="292" y="455" type="line"/>
      <point x="292" y="604" type="line"/>
      <point x="276" y="611"/>
      <point x="258" y="613"/>
      <point x="237" y="613" type="curve" smooth="yes"/>
      <point x="215" y="613"/>
      <point x="197" y="611"/>
      <point x="181" y="604" type="curve"/>
      <point x="181" y="459" type="line"/>
      <point x="26" y="459" type="line"/>
      <point x="26" y="681" type="line"/>
      <point x="89" y="715"/>
      <point x="163" y="729"/>
      <point x="238" y="729" type="curve" smooth="yes"/>
      <point x="315" y="729"/>
      <point x="388" y="714"/>
      <point x="450" y="681" type="curve"/>
      <point x="450" y="406" type="line"/>
      <point x="208" y="128" type="line"/>
      <point x="208" y="127" type="line"/>
      <point x="452" y="127" type="line"/>
    </contour>
  </outline>
</glyph>
<glyph name="three" format="1">
  <advance width="503"/>
  <unicode hex="0033"/>
  <outline>
    <contour>
      <point x="468" y="39" type="line"/>
      <point x="406" y="6"/>
      <point x="328" y="-9"/>
      <point x="250" y="-9" type="curve" smooth="yes"/>
      <point x="171" y="-9"/>
      <point x="94" y="5"/>
      <point x="32" y="39" type="curve"/>
      <point x="32" y="256" type="line"/>
      <point x="190" y="256" type="line"/>
      <point x="190" y="115" type="line"/>
      <point x="206" y="109"/>
      <point x="226" y="106"/>
      <point x="250" y="106" type="curve" smooth="yes"/>
      <point x="272" y="106"/>
      <point x="293" y="109"/>
      <point x="310" y="115" type="curve"/>
      <point x="310" y="289" type="line"/>
      <point x="293" y="299"/>
      <point x="273" y="303"/>
      <point x="239" y="303" type="curve" smooth="yes"/>
      <point x="105" y="303" type="line"/>
      <point x="105" y="425" type="line"/>
      <point x="239" y="425" type="line" smooth="yes"/>
      <point x="272" y="425"/>
      <point x="293" y="430"/>
      <point x="309" y="439" type="curve"/>
      <point x="309" y="606" type="line"/>
      <point x="292" y="613"/>
      <point x="272" y="615"/>
      <point x="250" y="615" type="curve" smooth="yes"/>
      <point x="226" y="615"/>
      <point x="206" y="613"/>
      <point x="190" y="606" type="curve"/>
      <point x="190" y="466" type="line"/>
      <point x="32" y="466" type="line"/>
      <point x="32" y="681" type="line"/>
      <point x="95" y="715"/>
      <point x="171" y="729"/>
      <point x="249" y="729" type="curve" smooth="yes"/>
      <point x="328" y="729"/>
      <point x="405" y="714"/>
      <point x="466" y="681" type="curve"/>
      <point x="466" y="401" type="line"/>
      <point x="444" y="386"/>
      <point x="409" y="374"/>
      <point x="370" y="368" type="curve"/>
      <point x="408" y="362"/>
      <point x="447" y="348"/>
      <point x="468" y="333" type="curve"/>
    </contour>
  </outline>
</glyph>
<glyph name="four" format="1">
  <advance width="507"/>
  <unicode hex="0034"/>
  <outline>
    <contour>
      <point x="467" y="0" type="line"/>
      <point x="308" y="0" type="line"/>
      <point x="308" y="225" type="line"/>
      <point x="34" y="225" type="line"/>
      <point x="34" y="720" type="line"/>
      <point x="194" y="720" type="line"/>
      <point x="194" y="345" type="line"/>
      <point x="308" y="345" type="line"/>
      <point x="308" y="720" type="line"/>
      <point x="467" y="720" type="line"/>
    </contour>
  </outline>
</glyph>
<glyph name="five" format="1">
  <advance width="492"/>
  <unicode hex="0035"/>
  <outline>
    <contour>
      <point x="462" y="593" type="line"/>
      <point x="179" y="593" type="line"/>
      <point x="179" y="445" type="line"/>
      <point x="181" y="445"/>
      <point x="247" y="445"/>
      <point x="251" y="445" type="curve" smooth="yes"/>
      <point x="334" y="445"/>
      <point x="406" y="433"/>
      <point x="461" y="405" type="curve"/>
      <point x="461" y="37" type="line"/>
      <point x="399" y="5"/>
      <point x="327" y="-9"/>
      <point x="248" y="-9" type="curve" smooth="yes"/>
      <point x="170" y="-9"/>
      <point x="98" y="5"/>
      <point x="35" y="37" type="curve"/>
      <point x="35" y="255" type="line"/>
      <point x="191" y="255" type="line"/>
      <point x="191" y="112" type="line"/>
      <point x="207" y="106"/>
      <point x="224" y="104"/>
      <point x="248" y="104" type="curve" smooth="yes"/>
      <point x="270" y="104"/>
      <point x="288" y="106"/>
      <point x="304" y="112" type="curve"/>
      <point x="304" y="314" type="line"/>
      <point x="290" y="321"/>
      <point x="273" y="323"/>
      <point x="246" y="323" type="curve" smooth="yes"/>
      <point x="37" y="323" type="line"/>
      <point x="37" y="720" type="line"/>
      <point x="462" y="720" type="line"/>
    </contour>
  </outline>
</glyph>
<glyph name="six" format="1">
  <advance width="506"/>
  <unicode hex="0036"/>
  <outline>
    <contour>
      <point x="471" y="41" type="line"/>
      <point x="412" y="5"/>
      <point x="330" y="-10"/>
      <point x="253" y="-10" type="curve" smooth="yes"/>
      <point x="177" y="-10"/>
      <point x="96" y="5"/>
      <point x="35" y="41" type="curve"/>
      <point x="35" y="681" type="line"/>
      <point x="97" y="714"/>
      <point x="174" y="729"/>
      <point x="253" y="729" type="curve" smooth="yes"/>
      <point x="331" y="729"/>
      <point x="408" y="715"/>
      <point x="470" y="683" type="curve"/>
      <point x="470" y="465" type="line"/>
      <point x="313" y="465" type="line"/>
      <point x="313" y="606" type="line"/>
      <point x="297" y="611"/>
      <point x="277" y="614"/>
      <point x="253" y="614" type="curve" smooth="yes"/>
      <point x="230" y="614"/>
      <point x="209" y="611"/>
      <point x="192" y="605" type="curve"/>
      <point x="192" y="413" type="line"/>
      <point x="212" y="421"/>
      <point x="244" y="427"/>
      <point x="274" y="427" type="curve" smooth="yes"/>
      <point x="347" y="427"/>
      <point x="415" y="416"/>
      <point x="471" y="390" type="curve"/>
    </contour>
    <contour>
      <point x="314" y="107" type="curve"/>
      <point x="314" y="316" type="line"/>
      <point x="301" y="322"/>
      <point x="282" y="325"/>
      <point x="253" y="325" type="curve" smooth="yes"/>
      <point x="233" y="325"/>
      <point x="210" y="322"/>
      <point x="192" y="315" type="curve"/>
      <point x="192" y="107" type="line"/>
      <point x="208" y="100"/>
      <point x="232" y="98"/>
      <point x="253" y="97" type="curve" smooth="yes"/>
      <point x="274" y="97"/>
      <point x="298" y="100"/>
    </contour>
  </outline>
</glyph>
<glyph name="seven" format="1">
  <advance width="440"/>
  <unicode hex="0037"/>
  <outline>
    <contour>
      <point x="417" y="601" type="line"/>
      <point x="241" y="0" type="line"/>
      <point x="76" y="0" type="line"/>
      <point x="256" y="592" type="line"/>
      <point x="20" y="592" type="line"/>
      <point x="20" y="720" type="line"/>
      <point x="417" y="720" type="line"/>
    </contour>
  </outline>
</glyph>
<glyph name="eight" format="1">
  <advance width="508"/>
  <unicode hex="0038"/>
  <outline>
    <contour>
      <point x="475" y="43" type="line"/>
      <point x="417" y="8"/>
      <point x="336" y="-9"/>
      <point x="255" y="-9" type="curve" smooth="yes"/>
      <point x="174" y="-9"/>
      <point x="93" y="8"/>
      <point x="35" y="43" type="curve"/>
      <point x="35" y="333" type="line"/>
      <point x="56" y="349"/>
      <point x="98" y="363"/>
      <point x="137" y="368" type="curve"/>
      <point x="98" y="374"/>
      <point x="60" y="387"/>
      <point x="39" y="402" type="curve"/>
      <point x="39" y="678" type="line"/>
      <point x="99" y="714"/>
      <point x="178" y="729"/>
      <point x="255" y="729" type="curve" smooth="yes"/>
      <point x="332" y="729"/>
      <point x="411" y="714"/>
      <point x="471" y="678" type="curve"/>
      <point x="471" y="402" type="line"/>
      <point x="450" y="387"/>
      <point x="411" y="374"/>
      <point x="373" y="368" type="curve"/>
      <point x="411" y="363"/>
      <point x="454" y="349"/>
      <point x="475" y="333" type="curve"/>
    </contour>
    <contour>
      <point x="313" y="427" type="curve"/>
      <point x="313" y="614" type="line"/>
      <point x="297" y="620"/>
      <point x="274" y="623"/>
      <point x="255" y="623" type="curve" smooth="yes"/>
      <point x="235" y="623"/>
      <point x="213" y="620"/>
      <point x="197" y="614" type="curve"/>
      <point x="197" y="427" type="line"/>
      <point x="212" y="419"/>
      <point x="235" y="416"/>
      <point x="255" y="416" type="curve" smooth="yes"/>
      <point x="275" y="416"/>
      <point x="297" y="419"/>
    </contour>
    <contour>
      <point x="317" y="106" type="curve"/>
      <point x="317" y="300" type="line"/>
      <point x="301" y="308"/>
      <point x="276" y="311"/>
      <point x="255" y="311" type="curve" smooth="yes"/>
      <point x="233" y="311"/>
      <point x="209" y="308"/>
      <point x="194" y="300" type="curve"/>
      <point x="194" y="106" type="line"/>
      <point x="210" y="99"/>
      <point x="234" y="96"/>
      <point x="255" y="96" type="curve" smooth="yes"/>
      <point x="275" y="96"/>
      <point x="300" y="99"/>
    </contour>
  </outline>
</glyph>
<glyph name="nine" format="1">
  <advance width="506"/>
  <unicode hex="0039"/>
  <outline>
    <contour>
      <point x="471" y="39" type="line"/>
      <point x="409" y="6"/>
      <point x="332" y="-9"/>
      <point x="253" y="-9" type="curve" smooth="yes"/>
      <point x="175" y="-9"/>
      <point x="98" y="5"/>
      <point x="36" y="37" type="curve"/>
      <point x="36" y="255" type="line"/>
      <point x="194" y="255" type="line"/>
      <point x="194" y="114" type="line"/>
      <point x="209" y="109"/>
      <point x="229" y="106"/>
      <point x="254" y="106" type="curve" smooth="yes"/>
      <point x="276" y="106"/>
      <point x="297" y="109"/>
      <point x="314" y="115" type="curve"/>
      <point x="314" y="307" type="line"/>
      <point x="295" y="299"/>
      <point x="262" y="293"/>
      <point x="232" y="293" type="curve" smooth="yes"/>
      <point x="159" y="293"/>
      <point x="91" y="304"/>
      <point x="35" y="330" type="curve"/>
      <point x="35" y="677" type="line"/>
      <point x="95" y="714"/>
      <point x="176" y="729"/>
      <point x="253" y="729" type="curve" smooth="yes"/>
      <point x="329" y="729"/>
      <point x="410" y="714"/>
      <point x="471" y="677" type="curve"/>
    </contour>
    <contour>
      <point x="314" y="405" type="curve"/>
      <point x="314" y="612" type="line"/>
      <point x="298" y="619"/>
      <point x="274" y="621"/>
      <point x="253" y="622" type="curve" smooth="yes"/>
      <point x="232" y="622"/>
      <point x="208" y="619"/>
      <point x="192" y="612" type="curve"/>
      <point x="192" y="404" type="line"/>
      <point x="206" y="398"/>
      <point x="224" y="395"/>
      <point x="253" y="395" type="curve" smooth="yes"/>
      <point x="273" y="395"/>
      <point x="296" y="398"/>
    </contour>
  </outline>
</glyph>
<glyph name="colon" format="1">
  <advance width="211"/>
  <unicode hex="003A"/>
  <outline>
    <contour>
      <point x="180" y="333" type="line"/>
      <point x="30" y="333" type="line"/>
      <point x="30" y="480" type="line"/>
      <point x="180" y="480" type="line"/>
    </contour>
    <contour>
      <point x="180" y="0" type="line"/>
      <point x="30" y="0" type="line"/>
      <point x="30" y="146" type="line"/>
      <point x="180" y="146" type="line"/>
    </contour>
  </outline>
</glyph>
<glyph name="semicolon" format="1">
  <advance width="211"/>
  <unicode hex="003B"/>
  <outline>
    <contour>
      <point x="180" y="333" type="line"/>
      <point x="30" y="333" type="line"/>
      <point x="30" y="480" type="line"/>
      <point x="180" y="480" type="line"/>
    </contour>
    <contour>
      <point x="185" y="146" type="line"/>
      <point x="161" y="-74" type="line"/>
      <point x="12" y="-74" type="line"/>
      <point x="36" y="146" type="line"/>
    </contour>
  </outline>
</glyph>
<glyph name="less" format="1">
  <advance width="316"/>
  <unicode hex="003C"/>
  <outline>
    <contour>
      <point x="287" y="94" type="line"/>
      <point x="21" y="286" type="line"/>
      <point x="21" y="434" type="line"/>
      <point x="287" y="626" type="line"/>
      <point x="287" y="466" type="line"/>
      <point x="139" y="360" type="line"/>
      <point x="287" y="255" type="line"/>
    </contour>
  </outline>
</glyph>
<glyph name="equal" format="1">
  <advance width="332"/>
  <unicode hex="003D"/>
  <outline>
    <contour>
      <point x="306" y="396" type="line"/>
      <point x="25" y="396" type="line"/>
      <point x="25" y="519" type="line"/>
      <point x="306" y="519" type="line"/>
    </contour>
    <contour>
      <point x="306" y="222" type="line"/>
      <point x="25" y="222" type="line"/>
      <point x="25" y="345" type="line"/>
      <point x="306" y="345" type="line"/>
    </contour>
  </outline>
</glyph>
<glyph name="greater" format="1">
  <advance width="316"/>
  <unicode hex="003E"/>
  <outline>
    <contour>
      <point x="295" y="286" type="line"/>
      <point x="29" y="94" type="line"/>
      <point x="29" y="255" type="line"/>
      <point x="177" y="360" type="line"/>
      <point x="29" y="466" type="line"/>
      <point x="29" y="626" type="line"/>
      <point x="295" y="434" type="line"/>
    </contour>
  </outline>
</glyph>
<glyph name="question" format="1">
  <advance width="467"/>
  <unicode hex="003F"/>
  <outline>
    <contour>
      <point x="445" y="384" type="line"/>
      <point x="312" y="289" type="line"/>
      <point x="312" y="184" type="line"/>
      <point x="156" y="184" type="line"/>
      <point x="156" y="359" type="line"/>
      <point x="287" y="454" type="line"/>
      <point x="287" y="605" type="line"/>
      <point x="270" y="611"/>
      <point x="253" y="614"/>
      <point x="232" y="614" type="curve" smooth="yes"/>
      <point x="210" y="614"/>
      <point x="192" y="611"/>
      <point x="176" y="605" type="curve"/>
      <point x="176" y="458" type="line"/>
      <point x="22" y="458" type="line"/>
      <point x="22" y="681" type="line"/>
      <point x="84" y="715"/>
      <point x="158" y="729"/>
      <point x="233" y="729" type="curve" smooth="yes"/>
      <point x="310" y="729"/>
      <point x="383" y="714"/>
      <point x="445" y="681" type="curve"/>
    </contour>
    <contour>
      <point x="313" y="0" type="line"/>
      <point x="155" y="0" type="line"/>
      <point x="155" y="143" type="line"/>
      <point x="313" y="143" type="line"/>
    </contour>
  </outline>
</glyph>
<glyph name="at" format="1">
  <advance width="631"/>
  <unicode hex="0040"/>
  <outline>
    <contour>
      <point x="595" y="53" type="line"/>
      <point x="520" y="10"/>
      <point x="419" y="-9"/>
      <point x="316" y="-9" type="curve" smooth="yes"/>
      <point x="211" y="-9"/>
      <point x="109" y="10"/>
      <point x="35" y="53" type="curve"/>
      <point x="35" y="667" type="line"/>
      <point x="109" y="710"/>
      <point x="211" y="729"/>
      <point x="316" y="729" type="curve" smooth="yes"/>
      <point x="419" y="729"/>
      <point x="520" y="710"/>
      <point x="595" y="667" type="curve"/>
      <point x="595" y="318" type="line"/>
      <point x="436" y="318" type="line"/>
      <point x="436" y="153" type="line"/>
      <point x="403" y="139"/>
      <point x="361" y="131"/>
      <point x="315" y="131" type="curve" smooth="yes"/>
      <point x="268" y="131"/>
      <point x="229" y="139"/>
      <point x="195" y="153" type="curve"/>
      <point x="195" y="568" type="line"/>
      <point x="227" y="581"/>
      <point x="266" y="589"/>
      <point x="315" y="589" type="curve" smooth="yes"/>
      <point x="363" y="589"/>
      <point x="402" y="582"/>
      <point x="436" y="568" type="curve"/>
      <point x="436" y="409" type="line"/>
      <point x="480" y="409" type="line"/>
      <point x="480" y="597" type="line"/>
      <point x="435" y="618"/>
      <point x="379" y="629"/>
      <point x="315" y="629" type="curve" smooth="yes"/>
      <point x="252" y="629"/>
      <point x="197" y="619"/>
      <point x="152" y="597" type="curve"/>
      <point x="152" y="123" type="line"/>
      <point x="197" y="101"/>
      <point x="252" y="91"/>
      <point x="315" y="91" type="curve" smooth="yes"/>
      <point x="379" y="91"/>
      <point x="435" y="102"/>
      <point x="480" y="123" type="curve"/>
      <point x="480" y="268" type="line"/>
      <point x="595" y="268" type="line"/>
    </contour>
    <contour>
      <point x="344" y="216" type="curve"/>
      <point x="344" y="506" type="line"/>
      <point x="337" y="509"/>
      <point x="328" y="511"/>
      <point x="315" y="511" type="curve" smooth="yes"/>
      <point x="303" y="511"/>
      <point x="293" y="509"/>
      <point x="286" y="506" type="curve"/>
      <point x="286" y="216" type="line"/>
      <point x="293" y="212"/>
      <point x="303" y="211"/>
      <point x="315" y="211" type="curve" smooth="yes"/>
      <point x="327" y="211"/>
      <point x="337" y="212"/>
    </contour>
  </outline>
</glyph>
<glyph name="A" format="1">
  <advance width="515"/>
  <unicode hex="0041"/>
  <outline>
    <contour>
      <point x="479" y="0" type="line"/>
      <point x="318" y="0" type="line"/>
      <point x="318" y="261" type="line"/>
      <point x="198" y="261" type="line"/>
      <point x="198" y="0" type="line"/>
      <point x="36" y="0" type="line"/>
      <point x="36" y="676" type="line"/>
      <point x="95" y="711"/>
      <point x="178" y="729"/>
      <point x="258" y="729" type="curve" smooth="yes"/>
      <point x="338" y="729"/>
      <point x="420" y="711"/>
      <point x="479" y="676" type="curve"/>
    </contour>
    <contour>
      <point x="318" y="375" type="line"/>
      <point x="318" y="604" type="line"/>
      <point x="301" y="612"/>
      <point x="280" y="616"/>
      <point x="258" y="616" type="curve" smooth="yes"/>
      <point x="235" y="616"/>
      <point x="215" y="612"/>
      <point x="198" y="604" type="curve"/>
      <point x="198" y="375" type="line"/>
    </contour>
  </outline>
</glyph>
<glyph name="B" format="1">
  <advance width="511"/>
  <unicode hex="0042"/>
  <outline>
    <contour>
      <point x="480" y="55" type="line"/>
      <point x="425" y="18"/>
      <point x="345" y="0"/>
      <point x="250" y="0" type="curve" smooth="yes"/>
      <point x="39" y="0" type="line"/>
      <point x="39" y="720" type="line"/>
      <point x="247" y="720" type="line" smooth="yes"/>
      <point x="341" y="720"/>
      <point x="421" y="702"/>
      <point x="477" y="666" type="curve"/>
      <point x="477" y="405" type="line"/>
      <point x="454" y="390"/>
      <point x="418" y="377"/>
      <point x="377" y="371" type="curve"/>
      <point x="417" y="366"/>
      <point x="458" y="352"/>
      <point x="480" y="336" type="curve"/>
    </contour>
    <contour>
      <point x="315" y="431" type="curve"/>
      <point x="315" y="607" type="line"/>
      <point x="301" y="616"/>
      <point x="280" y="620"/>
      <point x="246" y="620" type="curve" smooth="yes"/>
      <point x="200" y="620" type="line"/>
      <point x="200" y="418" type="line"/>
      <point x="248" y="418" type="line" smooth="yes"/>
      <point x="281" y="418"/>
      <point x="300" y="422"/>
    </contour>
    <contour>
      <point x="318" y="111" type="curve"/>
      <point x="318" y="302" type="line"/>
      <point x="302" y="311"/>
      <point x="282" y="315"/>
      <point x="248" y="315" type="curve" smooth="yes"/>
      <point x="200" y="315" type="line"/>
      <point x="200" y="99" type="line"/>
      <point x="249" y="99" type="line" smooth="yes"/>
      <point x="283" y="99"/>
      <point x="304" y="102"/>
    </contour>
  </outline>
</glyph>
<glyph name="C" format="1">
  <advance width="522"/>
  <unicode hex="0043"/>
  <outline>
    <contour>
      <point x="487" y="42" type="line"/>
      <point x="424" y="7"/>
      <point x="341" y="-9"/>
      <point x="262" y="-9" type="curve" smooth="yes"/>
      <point x="183" y="-10"/>
      <point x="100" y="6"/>
      <point x="35" y="42" type="curve"/>
      <point x="35" y="678" type="line"/>
      <point x="99" y="713"/>
      <point x="182" y="729"/>
      <point x="262" y="729" type="curve" smooth="yes"/>
      <point x="339" y="729"/>
      <point x="423" y="714"/>
      <point x="487" y="678" type="curve"/>
      <point x="487" y="434" type="line"/>
      <point x="326" y="434" type="line"/>
      <point x="326" y="600" type="line"/>
      <point x="307" y="608"/>
      <point x="284" y="611"/>
      <point x="261" y="611" type="curve" smooth="yes"/>
      <point x="238" y="611"/>
      <point x="217" y="608"/>
      <point x="197" y="600" type="curve"/>
      <point x="197" y="120" type="line"/>
      <point x="216" y="112"/>
      <point x="238" y="109"/>
      <point x="261" y="109" type="curve" smooth="yes"/>
      <point x="284" y="109"/>
      <point x="306" y="112"/>
      <point x="326" y="120" type="curve"/>
      <point x="326" y="286" type="line"/>
      <point x="487" y="286" type="line"/>
    </contour>
  </outline>
</glyph>
<glyph name="D" format="1">
  <advance width="527"/>
  <unicode hex="0044"/>
  <outline>
    <contour>
      <point x="492" y="69" type="line"/>
      <point x="433" y="25"/>
      <point x="349" y="0"/>
      <point x="252" y="0" type="curve" smooth="yes"/>
      <point x="39" y="0" type="line"/>
      <point x="39" y="720" type="line"/>
      <point x="252" y="720" type="line" smooth="yes"/>
      <point x="348" y="720"/>
      <point x="431" y="696"/>
      <point x="492" y="651" type="curve"/>
    </contour>
    <contour>
      <point x="331" y="132" type="curve"/>
      <point x="331" y="588" type="line"/>
      <point x="314" y="599"/>
      <point x="286" y="606"/>
      <point x="251" y="606" type="curve" smooth="yes"/>
      <point x="201" y="606" type="line"/>
      <point x="201" y="114" type="line"/>
      <point x="251" y="114" type="line" smooth="yes"/>
      <point x="286" y="114"/>
      <point x="314" y="121"/>
    </contour>
  </outline>
</glyph>
<glyph name="E" format="1">
  <advance width="522"/>
  <unicode hex="0045"/>
  <outline>
    <contour>
      <point x="487" y="38" type="line"/>
      <point x="424" y="6"/>
      <point x="340" y="-9"/>
      <point x="262" y="-9" type="curve" smooth="yes"/>
      <point x="183" y="-9"/>
      <point x="100" y="5"/>
      <point x="35" y="38" type="curve"/>
      <point x="35" y="682" type="line"/>
      <point x="99" y="714"/>
      <point x="182" y="728"/>
      <point x="262" y="729" type="curve" smooth="yes"/>
      <point x="339" y="729"/>
      <point x="423" y="715"/>
      <point x="487" y="682" type="curve"/>
      <point x="487" y="466" type="line"/>
      <point x="326" y="466" type="line"/>
      <point x="326" y="606" type="line"/>
      <point x="307" y="612"/>
      <point x="284" y="615"/>
      <point x="261" y="615" type="curve" smooth="yes"/>
      <point x="238" y="615"/>
      <point x="217" y="613"/>
      <point x="197" y="606" type="curve"/>
      <point x="197" y="426" type="line"/>
      <point x="428" y="426" type="line"/>
      <point x="428" y="308" type="line"/>
      <point x="197" y="308" type="line"/>
      <point x="197" y="114" type="line"/>
      <point x="216" y="108"/>
      <point x="238" y="105"/>
      <point x="261" y="105" type="curve" smooth="yes"/>
      <point x="284" y="105"/>
      <point x="306" y="107"/>
      <point x="326" y="114" type="curve"/>
      <point x="326" y="256" type="line"/>
      <point x="487" y="256" type="line"/>
    </contour>
  </outline>
</glyph>
<glyph name="F" format="1">
  <advance width="506"/>
  <unicode hex="0046"/>
  <outline>
    <contour>
      <point x="482" y="454" type="line"/>
      <point x="321" y="454" type="line"/>
      <point x="321" y="603" type="line"/>
      <point x="302" y="610"/>
      <point x="282" y="612"/>
      <point x="259" y="612" type="curve" smooth="yes"/>
      <point x="236" y="612"/>
      <point x="216" y="610"/>
      <point x="197" y="603" type="curve"/>
      <point x="197" y="408" type="line"/>
      <point x="428" y="408" type="line"/>
      <point x="428" y="282" type="line"/>
      <point x="197" y="282" type="line"/>
      <point x="197" y="0" type="line"/>
      <point x="35" y="0" type="line"/>
      <point x="35" y="682" type="line"/>
      <point x="99" y="714"/>
      <point x="177" y="729"/>
      <point x="259" y="729" type="curve" smooth="yes"/>
      <point x="339" y="729"/>
      <point x="418" y="715"/>
      <point x="482" y="682" type="curve"/>
    </contour>
  </outline>
</glyph>
<glyph name="G" format="1">
  <advance width="527"/>
  <unicode hex="0047"/>
  <outline>
    <contour>
      <point x="492" y="42" type="line"/>
      <point x="429" y="7"/>
      <point x="345" y="-9"/>
      <point x="264" y="-9" type="curve" smooth="yes"/>
      <point x="183" y="-10"/>
      <point x="100" y="6"/>
      <point x="35" y="42" type="curve"/>
      <point x="35" y="678" type="line"/>
      <point x="99" y="713"/>
      <point x="182" y="729"/>
      <point x="264" y="729" type="curve" smooth="yes"/>
      <point x="344" y="729"/>
      <point x="428" y="714"/>
      <point x="492" y="678" type="curve"/>
      <point x="492" y="462" type="line"/>
      <point x="331" y="462" type="line"/>
      <point x="331" y="604" type="line"/>
      <point x="312" y="611"/>
      <point x="289" y="614"/>
      <point x="264" y="614" type="curve" smooth="yes"/>
      <point x="239" y="614"/>
      <point x="217" y="612"/>
      <point x="197" y="604" type="curve"/>
      <point x="197" y="116" type="line"/>
      <point x="216" y="109"/>
      <point x="241" y="105"/>
      <point x="266" y="105" type="curve" smooth="yes"/>
      <point x="292" y="105"/>
      <point x="317" y="108"/>
      <point x="336" y="116" type="curve"/>
      <point x="336" y="292" type="line"/>
      <point x="272" y="292" type="line"/>
      <point x="272" y="410" type="line"/>
      <point x="492" y="410" type="line"/>
    </contour>
  </outline>
</glyph>
<glyph name="H" format="1">
  <advance width="532"/>
  <unicode hex="0048"/>
  <outline>
    <contour>
      <point x="493" y="0" type="line"/>
      <point x="330" y="0" type="line"/>
      <point x="330" y="310" type="line"/>
      <point x="202" y="310" type="line"/>
      <point x="202" y="0" type="line"/>
      <point x="39" y="0" type="line"/>
      <point x="39" y="720" type="line"/>
      <point x="202" y="720" type="line"/>
      <point x="202" y="431" type="line"/>
      <point x="330" y="431" type="line"/>
      <point x="330" y="720" type="line"/>
      <point x="493" y="720" type="line"/>
    </contour>
  </outline>
</glyph>
<glyph name="I" format="1">
  <advance width="244"/>
  <unicode hex="0049"/>
  <outline>
    <contour>
      <point x="204" y="0" type="line"/>
      <point x="41" y="0" type="line"/>
      <point x="41" y="720" type="line"/>
      <point x="204" y="720" type="line"/>
    </contour>
  </outline>
</glyph>
<glyph name="J" format="1">
  <advance width="343"/>
  <unicode hex="004A"/>
  <outline>
    <contour>
      <point x="305" y="53" type="line"/>
      <point x="249" y="18"/>
      <point x="176" y="0"/>
      <point x="95" y="0" type="curve" smooth="yes"/>
      <point x="21" y="0" type="line"/>
      <point x="21" y="129" type="line"/>
      <point x="88" y="129" type="line" smooth="yes"/>
      <point x="111" y="129"/>
      <point x="129" y="133"/>
      <point x="143" y="140" type="curve"/>
      <point x="143" y="720" type="line"/>
      <point x="305" y="720" type="line"/>
    </contour>
  </outline>
</glyph>
<glyph name="K" format="1">
  <advance width="524"/>
  <unicode hex="004B"/>
  <outline>
    <contour>
      <point x="487" y="0" type="line"/>
      <point x="325" y="0" type="line"/>
      <point x="325" y="287" type="line"/>
      <point x="310" y="298"/>
      <point x="284" y="307"/>
      <point x="244" y="307" type="curve" smooth="yes"/>
      <point x="202" y="307" type="line"/>
      <point x="202" y="0" type="line"/>
      <point x="39" y="0" type="line"/>
      <point x="39" y="720" type="line"/>
      <point x="202" y="720" type="line"/>
      <point x="202" y="431" type="line"/>
      <point x="245" y="431" type="line" smooth="yes"/>
      <point x="282" y="431"/>
      <point x="307" y="438"/>
      <point x="323" y="450" type="curve"/>
      <point x="323" y="720" type="line"/>
      <point x="485" y="720" type="line"/>
      <point x="485" y="410" type="line"/>
      <point x="464" y="394"/>
      <point x="420" y="377"/>
      <point x="377" y="370" type="curve"/>
      <point x="421" y="361"/>
      <point x="463" y="346"/>
      <point x="487" y="327" type="curve"/>
    </contour>
  </outline>
</glyph>
<glyph name="L" format="1">
  <advance width="403"/>
  <unicode hex="004C"/>
  <outline>
    <contour>
      <point x="383" y="0" type="line"/>
      <point x="39" y="0" type="line"/>
      <point x="39" y="720" type="line"/>
      <point x="202" y="720" type="line"/>
      <point x="202" y="132" type="line"/>
      <point x="383" y="132" type="line"/>
    </contour>
  </outline>
</glyph>
<glyph name="M" format="1">
  <advance width="722"/>
  <unicode hex="004D"/>
  <outline>
    <contour>
      <point x="684" y="0" type="line"/>
      <point x="526" y="0" type="line"/>
      <point x="526" y="599" type="line"/>
      <point x="506" y="606"/>
      <point x="475" y="611"/>
      <point x="440" y="613" type="curve"/>
      <point x="440" y="0" type="line"/>
      <point x="282" y="0" type="line"/>
      <point x="282" y="613" type="line"/>
      <point x="247" y="611"/>
      <point x="216" y="607"/>
      <point x="195" y="599" type="curve"/>
      <point x="195" y="0" type="line"/>
      <point x="38" y="0" type="line"/>
      <point x="38" y="674" type="line"/>
      <point x="126" y="713"/>
      <point x="236" y="730"/>
      <point x="361" y="730" type="curve" smooth="yes"/>
      <point x="486" y="730"/>
      <point x="595" y="714"/>
      <point x="684" y="674" type="curve"/>
    </contour>
  </outline>
</glyph>
<glyph name="N" format="1">
  <advance width="533"/>
  <unicode hex="004E"/>
  <outline>
    <contour>
      <point x="495" y="0" type="line"/>
      <point x="333" y="0" type="line"/>
      <point x="333" y="598" type="line"/>
      <point x="316" y="606"/>
      <point x="296" y="610"/>
      <point x="267" y="610" type="curve" smooth="yes"/>
      <point x="238" y="610"/>
      <point x="218" y="606"/>
      <point x="200" y="598" type="curve"/>
      <point x="200" y="0" type="line"/>
      <point x="38" y="0" type="line"/>
      <point x="38" y="674" type="line"/>
      <point x="97" y="709"/>
      <point x="181" y="729"/>
      <point x="267" y="729" type="curve" smooth="yes"/>
      <point x="351" y="729"/>
      <point x="435" y="710"/>
      <point x="495" y="674" type="curve"/>
    </contour>
  </outline>
</glyph>
<glyph name="O" format="1">
  <advance width="533"/>
  <unicode hex="004F"/>
  <outline>
    <contour>
      <point x="497" y="46" type="line"/>
      <point x="434" y="9"/>
      <point x="351" y="-9"/>
      <point x="267" y="-9" type="curve" smooth="yes"/>
      <point x="182" y="-10"/>
      <point x="100" y="9"/>
      <point x="35" y="46" type="curve"/>
      <point x="35" y="675" type="line"/>
      <point x="99" y="711"/>
      <point x="181" y="729"/>
      <point x="267" y="729" type="curve" smooth="yes"/>
      <point x="350" y="729"/>
      <point x="433" y="712"/>
      <point x="497" y="675" type="curve"/>
    </contour>
    <contour>
      <point x="336" y="123" type="curve"/>
      <point x="336" y="598" type="line"/>
      <point x="317" y="606"/>
      <point x="294" y="610"/>
      <point x="266" y="610" type="curve" smooth="yes"/>
      <point x="239" y="610"/>
      <point x="216" y="606"/>
      <point x="197" y="598" type="curve"/>
      <point x="197" y="123" type="line"/>
      <point x="216" y="114"/>
      <point x="239" y="110"/>
      <point x="266" y="110" type="curve" smooth="yes"/>
      <point x="293" y="110"/>
      <point x="316" y="114"/>
    </contour>
  </outline>
</glyph>
<glyph name="P" format="1">
  <advance width="498"/>
  <unicode hex="0050"/>
  <outline>
    <contour>
      <point x="475" y="322" type="line"/>
      <point x="418" y="282"/>
      <point x="343" y="261"/>
      <point x="245" y="261" type="curve" smooth="yes"/>
      <point x="202" y="261" type="line"/>
      <point x="202" y="0" type="line"/>
      <point x="39" y="0" type="line"/>
      <point x="39" y="720" type="line"/>
      <point x="245" y="720" type="line" smooth="yes"/>
      <point x="343" y="720"/>
      <point x="417" y="700"/>
      <point x="475" y="659" type="curve"/>
    </contour>
    <contour>
      <point x="313" y="384" type="curve"/>
      <point x="313" y="596" type="line"/>
      <point x="298" y="607"/>
      <point x="278" y="612"/>
      <point x="244" y="612" type="curve" smooth="yes"/>
      <point x="200" y="612" type="line"/>
      <point x="200" y="369" type="line"/>
      <point x="244" y="369" type="line" smooth="yes"/>
      <point x="277" y="369"/>
      <point x="297" y="374"/>
    </contour>
  </outline>
</glyph>
<glyph name="Q" format="1">
  <advance width="533"/>
  <unicode hex="0051"/>
  <outline>
    <contour>
      <point x="497" y="46" type="line"/>
      <point x="455" y="20"/>
      <point x="402" y="4"/>
      <point x="347" y="-3" type="curve"/>
      <point x="347" y="-88" type="line"/>
      <point x="185" y="-88" type="line"/>
      <point x="185" y="-3" type="line"/>
      <point x="131" y="4"/>
      <point x="78" y="20"/>
      <point x="35" y="46" type="curve"/>
      <point x="35" y="675" type="line"/>
      <point x="99" y="711"/>
      <point x="181" y="729"/>
      <point x="267" y="729" type="curve" smooth="yes"/>
      <point x="350" y="729"/>
      <point x="433" y="712"/>
      <point x="497" y="675" type="curve"/>
    </contour>
    <contour>
      <point x="336" y="123" type="curve"/>
      <point x="336" y="598" type="line"/>
      <point x="317" y="606"/>
      <point x="294" y="610"/>
      <point x="266" y="610" type="curve" smooth="yes"/>
      <point x="239" y="610"/>
      <point x="216" y="606"/>
      <point x="197" y="598" type="curve"/>
      <point x="197" y="123" type="line"/>
      <point x="216" y="114"/>
      <point x="239" y="110"/>
      <point x="266" y="110" type="curve" smooth="yes"/>
      <point x="293" y="110"/>
      <point x="316" y="114"/>
    </contour>
  </outline>
</glyph>
<glyph name="R" format="1">
  <advance width="516"/>
  <unicode hex="0052"/>
  <outline>
    <contour>
      <point x="482" y="0" type="line"/>
      <point x="320" y="0" type="line"/>
      <point x="320" y="278" type="line"/>
      <point x="303" y="287"/>
      <point x="282" y="292"/>
      <point x="249" y="292" type="curve" smooth="yes"/>
      <point x="202" y="292" type="line"/>
      <point x="202" y="0" type="line"/>
      <point x="39" y="0" type="line"/>
      <point x="39" y="720" type="line"/>
      <point x="253" y="720" type="line" smooth="yes"/>
      <point x="351" y="720"/>
      <point x="423" y="703"/>
      <point x="480" y="662" type="curve"/>
      <point x="480" y="386" type="line"/>
      <point x="458" y="373"/>
      <point x="422" y="362"/>
      <point x="382" y="355" type="curve"/>
      <point x="421" y="349"/>
      <point x="461" y="336"/>
      <point x="482" y="322" type="curve"/>
    </contour>
    <contour>
      <point x="319" y="414" type="curve"/>
      <point x="319" y="604" type="line"/>
      <point x="303" y="615"/>
      <point x="286" y="618"/>
      <point x="253" y="618" type="curve" smooth="yes"/>
      <point x="200" y="618" type="line"/>
      <point x="200" y="400" type="line"/>
      <point x="251" y="400" type="line" smooth="yes"/>
      <point x="285" y="400"/>
      <point x="304" y="405"/>
    </contour>
  </outline>
</glyph>
<glyph name="S" format="1">
  <advance width="517"/>
  <unicode hex="0053"/>
  <outline>
    <contour>
      <point x="482" y="39" type="line"/>
      <point x="418" y="6"/>
      <point x="337" y="-9"/>
      <point x="259" y="-9" type="curve" smooth="yes"/>
      <point x="180" y="-8"/>
      <point x="100" y="6"/>
      <point x="35" y="39" type="curve"/>
      <point x="35" y="257" type="line"/>
      <point x="197" y="257" type="line"/>
      <point x="197" y="114" type="line"/>
      <point x="216" y="108"/>
      <point x="237" y="105"/>
      <point x="259" y="105" type="curve" smooth="yes"/>
      <point x="280" y="105"/>
      <point x="301" y="107"/>
      <point x="321" y="114" type="curve"/>
      <point x="321" y="276" type="line"/>
      <point x="35" y="357" type="line"/>
      <point x="35" y="681" type="line"/>
      <point x="100" y="714"/>
      <point x="178" y="729"/>
      <point x="259" y="729" type="curve" smooth="yes"/>
      <point x="339" y="729"/>
      <point x="417" y="715"/>
      <point x="482" y="681" type="curve"/>
      <point x="482" y="466" type="line"/>
      <point x="320" y="466" type="line"/>
      <point x="320" y="606" type="line"/>
      <point x="301" y="613"/>
      <point x="282" y="615"/>
      <point x="259" y="615" type="curve" smooth="yes"/>
      <point x="236" y="615"/>
      <point x="218" y="613"/>
      <point x="197" y="606" type="curve"/>
      <point x="197" y="449" type="line"/>
      <point x="482" y="369" type="line"/>
    </contour>
  </outline>
</glyph>
<glyph name="T" format="1">
  <advance width="451"/>
  <unicode hex="0054"/>
  <outline>
    <contour>
      <point x="430" y="588" type="line"/>
      <point x="307" y="588" type="line"/>
      <point x="307" y="0" type="line"/>
      <point x="144" y="0" type="line"/>
      <point x="144" y="588" type="line"/>
      <point x="21" y="588" type="line"/>
      <point x="21" y="720" type="line"/>
      <point x="430" y="720" type="line"/>
    </contour>
  </outline>
</glyph>
<glyph name="U" format="1">
  <advance width="533"/>
  <unicode hex="0055"/>
  <outline>
    <contour>
      <point x="495" y="46" type="line"/>
      <point x="435" y="11"/>
      <point x="352" y="-9"/>
      <point x="267" y="-9" type="curve" smooth="yes"/>
      <point x="182" y="-9"/>
      <point x="98" y="11"/>
      <point x="38" y="46" type="curve"/>
      <point x="38" y="720" type="line"/>
      <point x="200" y="720" type="line"/>
      <point x="200" y="122" type="line"/>
      <point x="218" y="114"/>
      <point x="237" y="110"/>
      <point x="267" y="110" type="curve" smooth="yes"/>
      <point x="295" y="110"/>
      <point x="316" y="114"/>
      <point x="333" y="122" type="curve"/>
      <point x="333" y="720" type="line"/>
      <point x="495" y="720" type="line"/>
    </contour>
  </outline>
</glyph>
<glyph name="V" format="1">
  <advance width="529"/>
  <unicode hex="0056"/>
  <outline>
    <contour>
      <point x="495" y="377" type="line" smooth="yes"/>
      <point x="495" y="193"/>
      <point x="430" y="86"/>
      <point x="349" y="-3" type="curve"/>
      <point x="184" y="-3" type="line"/>
      <point x="102" y="86"/>
      <point x="37" y="192"/>
      <point x="37" y="377" type="curve" smooth="yes"/>
      <point x="37" y="720" type="line"/>
      <point x="200" y="720" type="line"/>
      <point x="200" y="378" type="line" smooth="yes"/>
      <point x="200" y="231"/>
      <point x="235" y="165"/>
      <point x="266" y="113" type="curve"/>
      <point x="297" y="165"/>
      <point x="332" y="230"/>
      <point x="332" y="378" type="curve" smooth="yes"/>
      <point x="332" y="720" type="line"/>
      <point x="495" y="720" type="line"/>
    </contour>
  </outline>
</glyph>
<glyph name="W" format="1">
  <advance width="722"/>
  <unicode hex="0057"/>
  <outline>
    <contour>
      <point x="684" y="46" type="line"/>
      <point x="595" y="7"/>
      <point x="486" y="-10"/>
      <point x="361" y="-10" type="curve" smooth="yes"/>
      <point x="236" y="-10"/>
      <point x="127" y="6"/>
      <point x="38" y="46" type="curve"/>
      <point x="38" y="720" type="line"/>
      <point x="195" y="720" type="line"/>
      <point x="195" y="122" type="line"/>
      <point x="216" y="114"/>
      <point x="246" y="109"/>
      <point x="282" y="108" type="curve"/>
      <point x="282" y="720" type="line"/>
      <point x="440" y="720" type="line"/>
      <point x="440" y="108" type="line"/>
      <point x="475" y="109"/>
      <point x="505" y="113"/>
      <point x="526" y="122" type="curve"/>
      <point x="526" y="720" type="line"/>
      <point x="684" y="720" type="line"/>
    </contour>
  </outline>
</glyph>
<glyph name="X" format="1">
  <advance width="514"/>
  <unicode hex="0058"/>
  <outline>
    <contour>
      <point x="477" y="0" type="line"/>
      <point x="315" y="0" type="line"/>
      <point x="315" y="293" type="line"/>
      <point x="300" y="301"/>
      <point x="278" y="306"/>
      <point x="257" y="306" type="curve" smooth="yes"/>
      <point x="236" y="306"/>
      <point x="214" y="301"/>
      <point x="199" y="293" type="curve"/>
      <point x="199" y="0" type="line"/>
      <point x="36" y="0" type="line"/>
      <point x="36" y="333" type="line"/>
      <point x="58" y="349"/>
      <point x="100" y="365"/>
      <point x="140" y="371" type="curve"/>
      <point x="100" y="378"/>
      <point x="61" y="392"/>
      <point x="38" y="407" type="curve"/>
      <point x="38" y="720" type="line"/>
      <point x="200" y="720" type="line"/>
      <point x="200" y="448" type="line"/>
      <point x="215" y="440"/>
      <point x="236" y="435"/>
      <point x="257" y="435" type="curve" smooth="yes"/>
      <point x="278" y="435"/>
      <point x="299" y="440"/>
      <point x="313" y="448" type="curve"/>
      <point x="313" y="720" type="line"/>
      <point x="476" y="720" type="line"/>
      <point x="476" y="407" type="line"/>
      <point x="453" y="392"/>
      <point x="414" y="378"/>
      <point x="374" y="371" type="curve"/>
      <point x="414" y="365"/>
      <point x="455" y="349"/>
      <point x="477" y="333" type="curve"/>
    </contour>
  </outline>
</glyph>
<glyph name="Y" format="1">
  <advance width="515"/>
  <unicode hex="0059"/>
  <outline>
    <contour>
      <point x="478" y="294" type="line"/>
      <point x="440" y="268"/>
      <point x="389" y="252"/>
      <point x="339" y="246" type="curve"/>
      <point x="339" y="0" type="line"/>
      <point x="177" y="0" type="line"/>
      <point x="177" y="246" type="line"/>
      <point x="127" y="252"/>
      <point x="75" y="268"/>
      <point x="36" y="294" type="curve"/>
      <point x="36" y="720" type="line"/>
      <point x="199" y="720" type="line"/>
      <point x="199" y="368" type="line"/>
      <point x="213" y="360"/>
      <point x="234" y="357"/>
      <point x="258" y="357" type="curve" smooth="yes"/>
      <point x="280" y="357"/>
      <point x="302" y="360"/>
      <point x="316" y="368" type="curve"/>
      <point x="316" y="720" type="line"/>
      <point x="478" y="720" type="line"/>
    </contour>
  </outline>
</glyph>
<glyph name="Z" format="1">
  <advance width="464"/>
  <unicode hex="005A"/>
  <outline>
    <contour>
      <point x="434" y="0" type="line"/>
      <point x="28" y="0" type="line"/>
      <point x="28" y="110" type="line"/>
      <point x="239" y="594" type="line"/>
      <point x="35" y="594" type="line"/>
      <point x="35" y="720" type="line"/>
      <point x="432" y="720" type="line"/>
      <point x="432" y="612" type="line"/>
      <point x="223" y="126" type="line"/>
      <point x="434" y="126" type="line"/>
    </contour>
  </outline>
</glyph>
<glyph name="bracketleft" format="1">
  <advance width="297"/>
  <unicode hex="005B"/>
  <outline>
    <contour>
      <point x="268" y="0" type="line"/>
      <point x="39" y="0" type="line"/>
      <point x="39" y="720" type="line"/>
      <point x="268" y="720" type="line"/>
      <point x="268" y="597" type="line"/>
      <point x="193" y="597" type="line"/>
      <point x="193" y="123" type="line"/>
      <point x="268" y="123" type="line"/>
    </contour>
  </outline>
</glyph>
<glyph name="backslash" format="1">
  <advance width="347"/>
  <unicode hex="005C"/>
  <outline>
    <contour>
      <point x="328" y="0" type="line"/>
      <point x="164" y="0" type="line"/>
      <point x="19" y="720" type="line"/>
      <point x="183" y="720" type="line"/>
    </contour>
  </outline>
</glyph>
<glyph name="bracketright" format="1">
  <advance width="297"/>
  <unicode hex="005D"/>
  <outline>
    <contour>
      <point x="258" y="0" type="line"/>
      <point x="28" y="0" type="line"/>
      <point x="28" y="123" type="line"/>
      <point x="104" y="123" type="line"/>
      <point x="104" y="597" type="line"/>
      <point x="28" y="597" type="line"/>
      <point x="28" y="720" type="line"/>
      <point x="258" y="720" type="line"/>
    </contour>
  </outline>
</glyph>
<glyph name="asciicircum" format="1">
  <advance width="436"/>
  <unicode hex="005E"/>
  <outline>
    <contour>
      <point x="418" y="350" type="line"/>
      <point x="272" y="350" type="line"/>
      <point x="218" y="608" type="line"/>
      <point x="163" y="350" type="line"/>
      <point x="18" y="350" type="line"/>
      <point x="128" y="724" type="line"/>
      <point x="308" y="724" type="line"/>
    </contour>
  </outline>
</glyph>
<glyph name="underscore" format="1">
  <advance width="401"/>
  <unicode hex="005F"/>
  <outline>
    <contour>
      <point x="401" y="-131" type="line"/>
      <point x="0" y="-131" type="line"/>
      <point x="0" y="-37" type="line"/>
      <point x="401" y="-37" type="line"/>
    </contour>
  </outline>
</glyph>
<glyph name="grave" format="1">
  <advance width="397"/>
  <unicode hex="0060"/>
  <outline>
    <contour>
      <point x="309" y="521" type="line"/>
      <point x="175" y="521" type="line"/>
      <point x="89" y="682" type="line"/>
      <point x="231" y="682" type="line"/>
    </contour>
  </outline>
</glyph>
<glyph name="a" format="1">
  <advance width="409"/>
  <unicode hex="0061"/>
  <outline>
    <contour>
      <point x="382" y="30" type="line"/>
      <point x="333" y="4"/>
      <point x="277" y="-9"/>
      <point x="204" y="-9" type="curve" smooth="yes"/>
      <point x="133" y="-9"/>
      <point x="76" y="3"/>
      <point x="26" y="30" type="curve"/>
      <point x="26" y="268" type="line"/>
      <point x="69" y="286"/>
      <point x="121" y="294"/>
      <point x="187" y="294" type="curve" smooth="yes"/>
      <point x="209" y="294"/>
      <point x="229" y="291"/>
      <point x="244" y="287" type="curve"/>
      <point x="244" y="396" type="line"/>
      <point x="233" y="401"/>
      <point x="221" y="402"/>
      <point x="205" y="402" type="curve" smooth="yes"/>
      <point x="189" y="402"/>
      <point x="178" y="401"/>
      <point x="166" y="397" type="curve"/>
      <point x="166" y="322" type="line"/>
      <point x="28" y="322" type="line"/>
      <point x="28" y="452" type="line"/>
      <point x="77" y="477"/>
      <point x="136" y="489"/>
      <point x="205" y="489" type="curve" smooth="yes"/>
      <point x="273" y="489"/>
      <point x="332" y="477"/>
      <point x="382" y="450" type="curve"/>
    </contour>
    <contour>
      <point x="244" y="82" type="curve"/>
      <point x="244" y="207" type="line"/>
      <point x="234" y="210"/>
      <point x="220" y="212"/>
      <point x="204" y="213" type="curve" smooth="yes"/>
      <point x="188" y="213"/>
      <point x="175" y="211"/>
      <point x="164" y="206" type="curve"/>
      <point x="164" y="82" type="line"/>
      <point x="173" y="78"/>
      <point x="187" y="76"/>
      <point x="204" y="76" type="curve" smooth="yes"/>
      <point x="221" y="76"/>
      <point x="234" y="78"/>
    </contour>
  </outline>
</glyph>
<glyph name="b" format="1">
  <advance width="420"/>
  <unicode hex="0062"/>
  <outline>
    <contour>
      <point x="392" y="35" type="line"/>
      <point x="346" y="8"/>
      <point x="286" y="-9"/>
      <point x="211" y="-9" type="curve" smooth="yes"/>
      <point x="137" y="-9"/>
      <point x="76" y="8"/>
      <point x="30" y="35" type="curve"/>
      <point x="30" y="720" type="line"/>
      <point x="169" y="720" type="line"/>
      <point x="169" y="476" type="line"/>
      <point x="185" y="481"/>
      <point x="207" y="486"/>
      <point x="232" y="486" type="curve" smooth="yes"/>
      <point x="292" y="486"/>
      <point x="349" y="472"/>
      <point x="392" y="443" type="curve"/>
    </contour>
    <contour>
      <point x="254" y="97" type="curve"/>
      <point x="254" y="377" type="line"/>
      <point x="244" y="382"/>
      <point x="230" y="385"/>
      <point x="211" y="385" type="curve" smooth="yes"/>
      <point x="192" y="385"/>
      <point x="179" y="382"/>
      <point x="168" y="377" type="curve"/>
      <point x="168" y="97" type="line"/>
      <point x="179" y="91"/>
      <point x="193" y="88"/>
      <point x="211" y="88" type="curve" smooth="yes"/>
      <point x="230" y="88"/>
      <point x="244" y="92"/>
    </contour>
  </outline>
</glyph>
<glyph name="c" format="1">
  <advance width="412"/>
  <unicode hex="0063"/>
  <outline>
    <contour>
      <point x="385" y="32" type="line"/>
      <point x="337" y="5"/>
      <point x="276" y="-9"/>
      <point x="207" y="-9" type="curve" smooth="yes"/>
      <point x="139" y="-9"/>
      <point x="77" y="4"/>
      <point x="28" y="32" type="curve"/>
      <point x="28" y="449" type="line"/>
      <point x="77" y="476"/>
      <point x="137" y="489"/>
      <point x="207" y="489" type="curve" smooth="yes"/>
      <point x="275" y="489"/>
      <point x="336" y="476"/>
      <point x="385" y="449" type="curve"/>
      <point x="385" y="279" type="line"/>
      <point x="247" y="279" type="line"/>
      <point x="247" y="382" type="line"/>
      <point x="236" y="386"/>
      <point x="223" y="388"/>
      <point x="207" y="388" type="curve" smooth="yes"/>
      <point x="191" y="388"/>
      <point x="177" y="387"/>
      <point x="166" y="382" type="curve"/>
      <point x="166" y="98" type="line"/>
      <point x="177" y="93"/>
      <point x="191" y="92"/>
      <point x="207" y="92" type="curve" smooth="yes"/>
      <point x="222" y="92"/>
      <point x="235" y="93"/>
      <point x="247" y="98" type="curve"/>
      <point x="247" y="202" type="line"/>
      <point x="385" y="202" type="line"/>
    </contour>
  </outline>
</glyph>
<glyph name="d" format="1">
  <advance width="420"/>
  <unicode hex="0064"/>
  <outline>
    <contour>
      <point x="390" y="35" type="line"/>
      <point x="344" y="8"/>
      <point x="284" y="-9"/>
      <point x="209" y="-9" type="curve" smooth="yes"/>
      <point x="135" y="-9"/>
      <point x="74" y="8"/>
      <point x="28" y="35" type="curve"/>
      <point x="28" y="443" type="line"/>
      <point x="72" y="472"/>
      <point x="128" y="486"/>
      <point x="188" y="486" type="curve" smooth="yes"/>
      <point x="213" y="486"/>
      <point x="235" y="481"/>
      <point x="251" y="476" type="curve"/>
      <point x="251" y="720" type="line"/>
      <point x="390" y="720" type="line"/>
    </contour>
    <contour>
      <point x="252" y="101" type="curve"/>
      <point x="252" y="377" type="line"/>
      <point x="241" y="382"/>
      <point x="228" y="385"/>
      <point x="209" y="385" type="curve" smooth="yes"/>
      <point x="191" y="385"/>
      <point x="176" y="382"/>
      <point x="166" y="377" type="curve"/>
      <point x="166" y="101" type="line"/>
      <point x="176" y="96"/>
      <point x="190" y="93"/>
      <point x="209" y="93" type="curve" smooth="yes"/>
      <point x="227" y="93"/>
      <point x="241" y="96"/>
    </contour>
  </outline>
</glyph>
<glyph name="e" format="1">
  <advance width="410"/>
  <unicode hex="0065"/>
  <outline>
    <contour>
      <point x="383" y="32" type="line"/>
      <point x="334" y="5"/>
      <point x="275" y="-9"/>
      <point x="205" y="-9" type="curve" smooth="yes"/>
      <point x="137" y="-9"/>
      <point x="77" y="4"/>
      <point x="28" y="32" type="curve"/>
      <point x="28" y="447" type="line"/>
      <point x="76" y="475"/>
      <point x="135" y="489"/>
      <point x="205" y="489" type="curve" smooth="yes"/>
      <point x="275" y="489"/>
      <point x="334" y="475"/>
      <point x="383" y="447" type="curve"/>
      <point x="383" y="205" type="line"/>
      <point x="165" y="205" type="line"/>
      <point x="165" y="87" type="line"/>
      <point x="176" y="82"/>
      <point x="190" y="80"/>
      <point x="205" y="80" type="curve" smooth="yes"/>
      <point x="221" y="80"/>
      <point x="233" y="81"/>
      <point x="244" y="87" type="curve"/>
      <point x="244" y="171" type="line"/>
      <point x="383" y="171" type="line"/>
    </contour>
    <contour>
      <point x="244" y="280" type="curve"/>
      <point x="244" y="395" type="line"/>
      <point x="234" y="400"/>
      <point x="223" y="402"/>
      <point x="205" y="402" type="curve" smooth="yes"/>
      <point x="188" y="402"/>
      <point x="176" y="400"/>
      <point x="165" y="395" type="curve"/>
      <point x="165" y="280" type="line"/>
      <point x="166" y="280"/>
      <point x="244" y="280"/>
    </contour>
  </outline>
</glyph>
<glyph name="g" format="1">
  <advance width="420"/>
  <unicode hex="0067"/>
  <outline>
    <contour>
      <point x="390" y="-144" type="line"/>
      <point x="344" y="-168"/>
      <point x="284" y="-183"/>
      <point x="209" y="-183" type="curve" smooth="yes"/>
      <point x="136" y="-183"/>
      <point x="74" y="-170"/>
      <point x="28" y="-145" type="curve"/>
      <point x="28" y="-25" type="line"/>
      <point x="166" y="-25" type="line"/>
      <point x="166" y="-92" type="line"/>
      <point x="176" y="-96"/>
      <point x="191" y="-98"/>
      <point x="209" y="-98" type="curve" smooth="yes"/>
      <point x="228" y="-98"/>
      <point x="241" y="-95"/>
      <point x="251" y="-91" type="curve"/>
      <point x="251" y="8" type="line"/>
      <point x="235" y="2"/>
      <point x="213" y="-2"/>
      <point x="187" y="-2" type="curve" smooth="yes"/>
      <point x="127" y="-2"/>
      <point x="72" y="10"/>
      <point x="28" y="33" type="curve"/>
      <point x="28" y="445" type="line"/>
      <point x="74" y="472"/>
      <point x="135" y="489"/>
      <point x="209" y="489" type="curve" smooth="yes"/>
      <point x="284" y="489"/>
      <point x="344" y="472"/>
      <point x="390" y="445" type="curve"/>
    </contour>
    <contour>
      <point x="252" y="101" type="curve"/>
      <point x="252" y="379" type="line"/>
      <point x="241" y="384"/>
      <point x="227" y="387"/>
      <point x="209" y="387" type="curve" smooth="yes"/>
      <point x="190" y="387"/>
      <point x="176" y="384"/>
      <point x="166" y="379" type="curve"/>
      <point x="166" y="101" type="line"/>
      <point x="176" y="97"/>
      <point x="191" y="93"/>
      <point x="209" y="93" type="curve" smooth="yes"/>
      <point x="228" y="93"/>
      <point x="241" y="97"/>
    </contour>
  </outline>
</glyph>
<glyph name="h" format="1">
  <advance width="420"/>
  <unicode hex="0068"/>
  <outline>
    <contour>
      <point x="390" y="0" type="line"/>
      <point x="251" y="0" type="line"/>
      <point x="251" y="372" type="line"/>
      <point x="240" y="377"/>
      <point x="226" y="379"/>
      <point x="210" y="379" type="curve" smooth="yes"/>
      <point x="195" y="379"/>
      <point x="180" y="377"/>
      <point x="169" y="372" type="curve"/>
      <point x="169" y="0" type="line"/>
      <point x="30" y="0" type="line"/>
      <point x="30" y="720" type="line"/>
      <point x="169" y="720" type="line"/>
      <point x="169" y="476" type="line"/>
      <point x="186" y="482"/>
      <point x="206" y="486"/>
      <point x="232" y="486" type="curve" smooth="yes"/>
      <point x="291" y="486"/>
      <point x="346" y="474"/>
      <point x="390" y="445" type="curve"/>
    </contour>
  </outline>
</glyph>
<glyph name="i" format="1">
  <advance width="206"/>
  <unicode hex="0069"/>
  <outline>
    <contour>
      <point x="175" y="554" type="line"/>
      <point x="32" y="554" type="line"/>
      <point x="32" y="697" type="line"/>
      <point x="175" y="697" type="line"/>
    </contour>
    <contour>
      <point x="173" y="0" type="line"/>
      <point x="33" y="0" type="line"/>
      <point x="33" y="480" type="line"/>
      <point x="173" y="480" type="line"/>
    </contour>
  </outline>
</glyph>
<glyph name="j" format="1">
  <advance width="206"/>
  <unicode hex="006A"/>
  <outline>
    <contour>
      <point x="175" y="554" type="line"/>
      <point x="32" y="554" type="line"/>
      <point x="32" y="697" type="line"/>
      <point x="175" y="697" type="line"/>
    </contour>
    <contour>
      <point x="173" y="-136" type="line"/>
      <point x="129" y="-165"/>
      <point x="76" y="-179"/>
      <point x="13" y="-179" type="curve" smooth="yes"/>
      <point x="-30" y="-179" type="line"/>
      <point x="-30" y="-74" type="line"/>
      <point x="-8" y="-74" type="line" smooth="yes"/>
      <point x="7" y="-74"/>
      <point x="23" y="-72"/>
      <point x="33" y="-66" type="curve"/>
      <point x="33" y="480" type="line"/>
      <point x="173" y="480" type="line"/>
    </contour>
  </outline>
</glyph>
<glyph name="k" format="1">
  <advance width="409"/>
  <unicode hex="006B"/>
  <outline>
    <contour>
      <point x="381" y="0" type="line"/>
      <point x="242" y="0" type="line"/>
      <point x="242" y="170" type="line"/>
      <point x="232" y="180"/>
      <point x="210" y="188"/>
      <point x="182" y="188" type="curve" smooth="yes"/>
      <point x="169" y="188" type="line"/>
      <point x="169" y="0" type="line"/>
      <point x="30" y="0" type="line"/>
      <point x="30" y="720" type="line"/>
      <point x="169" y="720" type="line"/>
      <point x="169" y="300" type="line"/>
      <point x="182" y="300" type="line" smooth="yes"/>
      <point x="206" y="300"/>
      <point x="227" y="307"/>
      <point x="238" y="318" type="curve"/>
      <point x="238" y="480" type="line"/>
      <point x="377" y="480" type="line"/>
      <point x="377" y="282" type="line"/>
      <point x="359" y="267"/>
      <point x="321" y="252"/>
      <point x="282" y="244" type="curve"/>
      <point x="321" y="237"/>
      <point x="359" y="224"/>
      <point x="381" y="205" type="curve"/>
    </contour>
  </outline>
</glyph>
<glyph name="l" format="1">
  <advance width="206"/>
  <unicode hex="006C"/>
  <outline>
    <contour>
      <point x="173" y="0" type="line"/>
      <point x="33" y="0" type="line"/>
      <point x="33" y="720" type="line"/>
      <point x="173" y="720" type="line"/>
    </contour>
  </outline>
</glyph>
<glyph name="m" format="1">
  <advance width="599"/>
  <unicode hex="006D"/>
  <outline>
    <contour>
      <point x="569" y="0" type="line"/>
      <point x="433" y="0" type="line"/>
      <point x="433" y="376" type="line"/>
      <point x="417" y="381"/>
      <point x="398" y="384"/>
      <point x="367" y="386" type="curve"/>
      <point x="367" y="0" type="line"/>
      <point x="231" y="0" type="line"/>
      <point x="231" y="386" type="line"/>
      <point x="201" y="384"/>
      <point x="182" y="381"/>
      <point x="166" y="376" type="curve"/>
      <point x="166" y="0" type="line"/>
      <point x="30" y="0" type="line"/>
      <point x="30" y="448" type="line"/>
      <point x="101" y="477"/>
      <point x="201" y="490"/>
      <point x="299" y="490" type="curve" smooth="yes"/>
      <point x="397" y="490"/>
      <point x="497" y="477"/>
      <point x="569" y="448" type="curve"/>
    </contour>
  </outline>
</glyph>
<glyph name="n" format="1">
  <advance width="420"/>
  <unicode hex="006E"/>
  <outline>
    <contour>
      <point x="390" y="0" type="line"/>
      <point x="251" y="0" type="line"/>
      <point x="251" y="373" type="line"/>
      <point x="240" y="379"/>
      <point x="226" y="380"/>
      <point x="210" y="380" type="curve" smooth="yes"/>
      <point x="195" y="380"/>
      <point x="180" y="379"/>
      <point x="169" y="373" type="curve"/>
      <point x="169" y="0" type="line"/>
      <point x="30" y="0" type="line"/>
      <point x="30" y="449" type="line"/>
      <point x="79" y="476"/>
      <point x="141" y="489"/>
      <point x="210" y="489" type="curve" smooth="yes"/>
      <point x="278" y="489"/>
      <point x="340" y="476"/>
      <point x="390" y="449" type="curve"/>
    </contour>
  </outline>
</glyph>
<glyph name="o" format="1">
  <advance width="418"/>
  <unicode hex="006F"/>
  <outline>
    <contour>
      <point x="390" y="35" type="line"/>
      <point x="345" y="9"/>
      <point x="284" y="-9"/>
      <point x="209" y="-9" type="curve" smooth="yes"/>
      <point x="135" y="-9"/>
      <point x="74" y="8"/>
      <point x="28" y="35" type="curve"/>
      <point x="28" y="445" type="line"/>
      <point x="74" y="472"/>
      <point x="134" y="489"/>
      <point x="209" y="489" type="curve" smooth="yes"/>
      <point x="283" y="489"/>
      <point x="344" y="473"/>
      <point x="390" y="445" type="curve"/>
    </contour>
    <contour>
      <point x="252" y="101" type="curve"/>
      <point x="252" y="379" type="line"/>
      <point x="242" y="384"/>
      <point x="228" y="387"/>
      <point x="209" y="387" type="curve" smooth="yes"/>
      <point x="191" y="387"/>
      <point x="176" y="384"/>
      <point x="166" y="379" type="curve"/>
      <point x="166" y="101" type="line"/>
      <point x="176" y="96"/>
      <point x="190" y="93"/>
      <point x="209" y="93" type="curve" smooth="yes"/>
      <point x="227" y="93"/>
      <point x="241" y="96"/>
    </contour>
  </outline>
</glyph>
<glyph name="p" format="1">
  <advance width="420"/>
  <unicode hex="0070"/>
  <outline>
    <contour>
      <point x="392" y="37" type="line"/>
      <point x="349" y="8"/>
      <point x="292" y="-6"/>
      <point x="232" y="-6" type="curve" smooth="yes"/>
      <point x="207" y="-6"/>
      <point x="185" y="-1"/>
      <point x="169" y="4" type="curve"/>
      <point x="169" y="-175" type="line"/>
      <point x="30" y="-175" type="line"/>
      <point x="30" y="445" type="line"/>
      <point x="76" y="472"/>
      <point x="137" y="489"/>
      <point x="211" y="489" type="curve" smooth="yes"/>
      <point x="286" y="489"/>
      <point x="346" y="472"/>
      <point x="392" y="445" type="curve"/>
    </contour>
    <contour>
      <point x="254" y="103" type="curve"/>
      <point x="254" y="379" type="line"/>
      <point x="244" y="384"/>
      <point x="230" y="387"/>
      <point x="211" y="387" type="curve" smooth="yes"/>
      <point x="193" y="387"/>
      <point x="179" y="384"/>
      <point x="168" y="379" type="curve"/>
      <point x="168" y="102" type="line"/>
      <point x="179" y="98"/>
      <point x="192" y="95"/>
      <point x="211" y="95" type="curve" smooth="yes"/>
      <point x="230" y="95"/>
      <point x="244" y="98"/>
    </contour>
  </outline>
</glyph>
<glyph name="q" format="1">
  <advance width="420"/>
  <unicode hex="0071"/>
  <outline>
    <contour>
      <point x="390" y="-175" type="line"/>
      <point x="251" y="-175" type="line"/>
      <point x="251" y="4" type="line"/>
      <point x="235" y="-1"/>
      <point x="213" y="-6"/>
      <point x="188" y="-6" type="curve" smooth="yes"/>
      <point x="128" y="-6"/>
      <point x="72" y="8"/>
      <point x="28" y="37" type="curve"/>
      <point x="28" y="445" type="line"/>
      <point x="74" y="472"/>
      <point x="135" y="489"/>
      <point x="209" y="489" type="curve" smooth="yes"/>
      <point x="284" y="489"/>
      <point x="344" y="472"/>
      <point x="390" y="445" type="curve"/>
    </contour>
    <contour>
      <point x="252" y="102" type="curve"/>
      <point x="252" y="379" type="line"/>
      <point x="241" y="384"/>
      <point x="227" y="387"/>
      <point x="209" y="387" type="curve" smooth="yes"/>
      <point x="190" y="387"/>
      <point x="176" y="384"/>
      <point x="166" y="379" type="curve"/>
      <point x="166" y="103" type="line"/>
      <point x="176" y="98"/>
      <point x="191" y="95"/>
      <point x="209" y="95" type="curve" smooth="yes"/>
      <point x="228" y="95"/>
      <point x="241" y="98"/>
    </contour>
  </outline>
</glyph>
<glyph name="r" format="1">
  <advance width="276"/>
  <unicode hex="0072"/>
  <outline>
    <contour>
      <point x="263" y="375" type="line"/>
      <point x="216" y="375" type="line" smooth="yes"/>
      <point x="200" y="375"/>
      <point x="182" y="371"/>
      <point x="170" y="366" type="curve"/>
      <point x="170" y="0" type="line"/>
      <point x="30" y="0" type="line"/>
      <point x="30" y="444" type="line"/>
      <point x="77" y="470"/>
      <point x="131" y="484"/>
      <point x="195" y="484" type="curve" smooth="yes"/>
      <point x="263" y="484" type="line"/>
    </contour>
  </outline>
</glyph>
<glyph name="s" format="1">
  <advance width="408"/>
  <unicode hex="0073"/>
  <outline>
    <contour>
      <point x="380" y="30" type="line"/>
      <point x="331" y="3"/>
      <point x="272" y="-9"/>
      <point x="204" y="-9" type="curve" smooth="yes"/>
      <point x="135" y="-9"/>
      <point x="77" y="4"/>
      <point x="28" y="30" type="curve"/>
      <point x="28" y="173" type="line"/>
      <point x="165" y="173" type="line"/>
      <point x="165" y="86" type="line"/>
      <point x="175" y="82"/>
      <point x="189" y="80"/>
      <point x="204" y="80" type="curve" smooth="yes"/>
      <point x="221" y="80"/>
      <point x="232" y="82"/>
      <point x="243" y="86" type="curve"/>
      <point x="243" y="180" type="line"/>
      <point x="28" y="232" type="line"/>
      <point x="28" y="450" type="line"/>
      <point x="77" y="476"/>
      <point x="135" y="489"/>
      <point x="204" y="489" type="curve" smooth="yes"/>
      <point x="273" y="489"/>
      <point x="331" y="477"/>
      <point x="380" y="450" type="curve"/>
      <point x="380" y="308" type="line"/>
      <point x="242" y="308" type="line"/>
      <point x="242" y="395" type="line"/>
      <point x="231" y="399"/>
      <point x="220" y="400"/>
      <point x="204" y="400" type="curve" smooth="yes"/>
      <point x="188" y="400"/>
      <point x="177" y="399"/>
      <point x="165" y="394" type="curve"/>
      <point x="165" y="301" type="line"/>
      <point x="380" y="250" type="line"/>
    </contour>
  </outline>
</glyph>
<glyph name="t" format="1">
  <advance width="276"/>
  <unicode hex="0074"/>
  <outline>
    <contour>
      <point x="255" y="-5" type="line"/>
      <point x="206" y="-5" type="line" smooth="yes"/>
      <point x="143" y="-5"/>
      <point x="90" y="9"/>
      <point x="45" y="39" type="curve"/>
      <point x="45" y="372" type="line"/>
      <point x="18" y="372" type="line"/>
      <point x="18" y="480" type="line"/>
      <point x="45" y="480" type="line"/>
      <point x="45" y="637" type="line"/>
      <point x="186" y="637" type="line"/>
      <point x="186" y="480" type="line"/>
      <point x="251" y="480" type="line"/>
      <point x="251" y="372" type="line"/>
      <point x="186" y="372" type="line"/>
      <point x="186" y="107" type="line"/>
      <point x="196" y="102"/>
      <point x="212" y="98"/>
      <point x="227" y="98" type="curve" smooth="yes"/>
      <point x="255" y="98" type="line"/>
    </contour>
  </outline>
</glyph>
<glyph name="u" format="1">
  <advance width="420"/>
  <unicode hex="0075"/>
  <outline>
    <contour>
      <point x="390" y="32" type="line"/>
      <point x="341" y="4"/>
      <point x="279" y="-9"/>
      <point x="210" y="-9" type="curve" smooth="yes"/>
      <point x="141" y="-9"/>
      <point x="79" y="4"/>
      <point x="30" y="32" type="curve"/>
      <point x="30" y="480" type="line"/>
      <point x="169" y="480" type="line"/>
      <point x="169" y="106" type="line"/>
      <point x="180" y="101"/>
      <point x="194" y="99"/>
      <point x="210" y="99" type="curve" smooth="yes"/>
      <point x="226" y="99"/>
      <point x="240" y="101"/>
      <point x="251" y="106" type="curve"/>
      <point x="251" y="480" type="line"/>
      <point x="390" y="480" type="line"/>
    </contour>
  </outline>
</glyph>
<glyph name="v" format="1">
  <advance width="419"/>
  <unicode hex="0076"/>
  <outline>
    <contour>
      <point x="389" y="290" type="line" smooth="yes"/>
      <point x="389" y="159"/>
      <point x="354" y="75"/>
      <point x="282" y="-3" type="curve"/>
      <point x="137" y="-3" type="line"/>
      <point x="66" y="74"/>
      <point x="29" y="158"/>
      <point x="29" y="290" type="curve" smooth="yes"/>
      <point x="29" y="480" type="line"/>
      <point x="169" y="480" type="line"/>
      <point x="169" y="277" type="line" smooth="yes"/>
      <point x="169" y="191"/>
      <point x="183" y="146"/>
      <point x="209" y="100" type="curve"/>
      <point x="236" y="145"/>
      <point x="250" y="191"/>
      <point x="250" y="277" type="curve" smooth="yes"/>
      <point x="250" y="480" type="line"/>
      <point x="389" y="480" type="line"/>
    </contour>
  </outline>
</glyph>
<glyph name="w" format="1">
  <advance width="599"/>
  <unicode hex="0077"/>
  <outline>
    <contour>
      <point x="569" y="32" type="line"/>
      <point x="498" y="4"/>
      <point x="397" y="-10"/>
      <point x="299" y="-10" type="curve" smooth="yes"/>
      <point x="202" y="-10"/>
      <point x="102" y="3"/>
      <point x="30" y="32" type="curve"/>
      <point x="30" y="480" type="line"/>
      <point x="166" y="480" type="line"/>
      <point x="166" y="104" type="line"/>
      <point x="182" y="99"/>
      <point x="201" y="96"/>
      <point x="231" y="95" type="curve"/>
      <point x="231" y="480" type="line"/>
      <point x="367" y="480" type="line"/>
      <point x="367" y="95" type="line"/>
      <point x="397" y="96"/>
      <point x="416" y="99"/>
      <point x="433" y="104" type="curve"/>
      <point x="433" y="480" type="line"/>
      <point x="569" y="480" type="line"/>
    </contour>
  </outline>
</glyph>
<glyph name="x" format="1">
  <advance width="414"/>
  <unicode hex="0078"/>
  <outline>
    <contour>
      <point x="385" y="0" type="line"/>
      <point x="246" y="0" type="line"/>
      <point x="246" y="172" type="line"/>
      <point x="239" y="178"/>
      <point x="226" y="182"/>
      <point x="207" y="182" type="curve" smooth="yes"/>
      <point x="189" y="182"/>
      <point x="175" y="178"/>
      <point x="168" y="172" type="curve"/>
      <point x="168" y="0" type="line"/>
      <point x="29" y="0" type="line"/>
      <point x="29" y="210" type="line"/>
      <point x="48" y="226"/>
      <point x="83" y="237"/>
      <point x="118" y="244" type="curve"/>
      <point x="82" y="250"/>
      <point x="47" y="263"/>
      <point x="30" y="277" type="curve"/>
      <point x="30" y="480" type="line"/>
      <point x="169" y="480" type="line"/>
      <point x="169" y="315" type="line"/>
      <point x="178" y="308"/>
      <point x="191" y="305"/>
      <point x="207" y="305" type="curve" smooth="yes"/>
      <point x="224" y="305"/>
      <point x="236" y="308"/>
      <point x="245" y="315" type="curve"/>
      <point x="245" y="480" type="line"/>
      <point x="384" y="480" type="line"/>
      <point x="384" y="277" type="line"/>
      <point x="367" y="263"/>
      <point x="332" y="251"/>
      <point x="296" y="244" type="curve"/>
      <point x="331" y="237"/>
      <point x="365" y="226"/>
      <point x="385" y="210" type="curve"/>
    </contour>
  </outline>
</glyph>
<glyph name="y" format="1">
  <advance width="420"/>
  <unicode hex="0079"/>
  <outline>
    <contour>
      <point x="390" y="-145" type="line"/>
      <point x="344" y="-170"/>
      <point x="285" y="-184"/>
      <point x="210" y="-184" type="curve" smooth="yes"/>
      <point x="137" y="-184"/>
      <point x="76" y="-171"/>
      <point x="30" y="-146" type="curve"/>
      <point x="30" y="-25" type="line"/>
      <point x="168" y="-25" type="line"/>
      <point x="168" y="-93" type="line"/>
      <point x="178" y="-97"/>
      <point x="191" y="-99"/>
      <point x="210" y="-99" type="curve" smooth="yes"/>
      <point x="229" y="-99"/>
      <point x="241" y="-97"/>
      <point x="251" y="-92" type="curve"/>
      <point x="251" y="7" type="line"/>
      <point x="234" y="1"/>
      <point x="213" y="-2"/>
      <point x="187" y="-2" type="curve" smooth="yes"/>
      <point x="128" y="-2"/>
      <point x="75" y="8"/>
      <point x="30" y="32" type="curve"/>
      <point x="30" y="480" type="line"/>
      <point x="169" y="480" type="line"/>
      <point x="169" y="106" type="line"/>
      <point x="180" y="101"/>
      <point x="194" y="99"/>
      <point x="210" y="99" type="curve" smooth="yes"/>
      <point x="226" y="99"/>
      <point x="240" y="101"/>
      <point x="251" y="106" type="curve"/>
      <point x="251" y="480" type="line"/>
      <point x="390" y="480" type="line"/>
    </contour>
  </outline>
</glyph>
<glyph name="z" format="1">
  <advance width="363"/>
  <unicode hex="007A"/>
  <outline>
    <contour>
      <point x="342" y="0" type="line"/>
      <point x="21" y="0" type="line"/>
      <point x="21" y="90" type="line"/>
      <point x="161" y="380" type="line"/>
      <point x="28" y="380" type="line"/>
      <point x="28" y="480" type="line"/>
      <point x="340" y="480" type="line"/>
      <point x="340" y="389" type="line"/>
      <point x="202" y="101" type="line"/>
      <point x="342" y="101" type="line"/>
    </contour>
  </outline>
</glyph>
<glyph name="braceleft" format="1">
  <advance width="324"/>
  <unicode hex="007B"/>
  <outline>
    <contour>
      <point x="296" y="-7" type="line"/>
      <point x="196" y="-7"/>
      <point x="134" y="9"/>
      <point x="71" y="47" type="curve"/>
      <point x="71" y="295" type="line"/>
      <point x="58" y="303"/>
      <point x="37" y="307"/>
      <point x="13" y="307" type="curve"/>
      <point x="13" y="426" type="line"/>
      <point x="37" y="426"/>
      <point x="57" y="430"/>
      <point x="71" y="437" type="curve"/>
      <point x="71" y="671" type="line"/>
      <point x="134" y="707"/>
      <point x="195" y="724"/>
      <point x="296" y="724" type="curve"/>
      <point x="296" y="595" type="line"/>
      <point x="269" y="594"/>
      <point x="241" y="590"/>
      <point x="222" y="582" type="curve"/>
      <point x="222" y="396" type="line"/>
      <point x="206" y="383"/>
      <point x="174" y="374"/>
      <point x="142" y="367" type="curve"/>
      <point x="173" y="361"/>
      <point x="205" y="351"/>
      <point x="222" y="337" type="curve"/>
      <point x="222" y="135" type="line"/>
      <point x="240" y="128"/>
      <point x="268" y="123"/>
      <point x="296" y="122" type="curve"/>
    </contour>
  </outline>
</glyph>
<glyph name="bar" format="1">
  <advance width="231"/>
  <unicode hex="007C"/>
  <outline>
    <contour>
      <point x="188" y="-112" type="line"/>
      <point x="42" y="-112" type="line"/>
      <point x="42" y="790" type="line"/>
      <point x="188" y="790" type="line"/>
    </contour>
  </outline>
</glyph>
<glyph name="braceright" format="1">
  <advance width="324"/>
  <unicode hex="007D"/>
  <outline>
    <contour>
      <point x="311" y="307" type="line"/>
      <point x="286" y="307"/>
      <point x="265" y="303"/>
      <point x="253" y="295" type="curve"/>
      <point x="253" y="47" type="line"/>
      <point x="189" y="9"/>
      <point x="127" y="-7"/>
      <point x="27" y="-7" type="curve"/>
      <point x="27" y="122" type="line"/>
      <point x="55" y="123"/>
      <point x="83" y="128"/>
      <point x="101" y="135" type="curve"/>
      <point x="101" y="337" type="line"/>
      <point x="118" y="351"/>
      <point x="150" y="361"/>
      <point x="182" y="367" type="curve"/>
      <point x="149" y="374"/>
      <point x="118" y="383"/>
      <point x="101" y="396" type="curve"/>
      <point x="101" y="582" type="line"/>
      <point x="82" y="590"/>
      <point x="54" y="594"/>
      <point x="27" y="595" type="curve"/>
      <point x="27" y="724" type="line"/>
      <point x="128" y="724"/>
      <point x="190" y="707"/>
      <point x="253" y="671" type="curve"/>
      <point x="253" y="437" type="line"/>
      <point x="266" y="430"/>
      <point x="286" y="426"/>
      <point x="311" y="426" type="curve"/>
    </contour>
  </outline>
</glyph>
<glyph name="asciitilde" format="1">
  <advance width="446"/>
  <unicode hex="007E"/>
  <outline>
    <contour>
      <point x="421" y="465" type="line"/>
      <point x="385" y="277" type="line"/>
      <point x="261" y="277" type="line"/>
      <point x="163" y="347" type="line"/>
      <point x="148" y="277" type="line"/>
      <point x="25" y="277" type="line"/>
      <point x="60" y="465" type="line"/>
      <point x="185" y="465" type="line"/>
      <point x="283" y="394" type="line"/>
      <point x="297" y="465" type="line"/>
    </contour>
  </outline>
</glyph>
<glyph name="exclamdown" format="1">
  <advance width="221"/>
  <unicode hex="00A1"/>
  <outline>
    <contour>
      <point x="189" y="577" type="line"/>
      <point x="31" y="577" type="line"/>
      <point x="31" y="720" type="line"/>
      <point x="189" y="720" type="line"/>
    </contour>
    <contour>
      <point x="188" y="0" type="line"/>
      <point x="32" y="0" type="line"/>
      <point x="32" y="534" type="line"/>
      <point x="188" y="534" type="line"/>
    </contour>
  </outline>
</glyph>
<glyph name="cent" format="1">
  <advance width="412"/>
  <unicode hex="00A2"/>
  <outline>
    <contour>
      <point x="385" y="151" type="line"/>
      <point x="355" y="133"/>
      <point x="318" y="122"/>
      <point x="279" y="116" type="curve"/>
      <point x="279" y="0" type="line"/>
      <point x="133" y="0" type="line"/>
      <point x="133" y="117" type="line"/>
      <point x="95" y="122"/>
      <point x="58" y="133"/>
      <point x="28" y="151" type="curve"/>
      <point x="28" y="569" type="line"/>
      <point x="57" y="586"/>
      <point x="94" y="598"/>
      <point x="133" y="603" type="curve"/>
      <point x="133" y="720" type="line"/>
      <point x="279" y="720" type="line"/>
      <point x="279" y="603" type="line"/>
      <point x="318" y="598"/>
      <point x="354" y="587"/>
      <point x="385" y="569" type="curve"/>
      <point x="385" y="398" type="line"/>
      <point x="247" y="398" type="line"/>
      <point x="247" y="503" type="line"/>
      <point x="236" y="507"/>
      <point x="222" y="509"/>
      <point x="207" y="509" type="curve" smooth="yes"/>
      <point x="192" y="509"/>
      <point x="177" y="507"/>
      <point x="166" y="503" type="curve"/>
      <point x="166" y="217" type="line"/>
      <point x="177" y="213"/>
      <point x="191" y="211"/>
      <point x="207" y="211" type="curve" smooth="yes"/>
      <point x="222" y="211"/>
      <point x="235" y="212"/>
      <point x="247" y="217" type="curve"/>
      <point x="247" y="322" type="line"/>
      <point x="385" y="322" type="line"/>
    </contour>
  </outline>
</glyph>
<glyph name="sterling" format="1">
  <advance width="499"/>
  <unicode hex="00A3"/>
  <outline>
    <contour>
      <point x="473" y="0" type="line"/>
      <point x="27" y="0" type="line"/>
      <point x="27" y="124" type="line"/>
      <point x="51" y="124" type="line"/>
      <point x="51" y="299" type="line"/>
      <point x="27" y="299" type="line"/>
      <point x="27" y="418" type="line"/>
      <point x="51" y="418" type="line"/>
      <point x="51" y="683" type="line"/>
      <point x="113" y="715"/>
      <point x="186" y="729"/>
      <point x="262" y="729" type="curve" smooth="yes"/>
      <point x="337" y="729"/>
      <point x="410" y="715"/>
      <point x="473" y="683" type="curve"/>
      <point x="473" y="466" type="line"/>
      <point x="315" y="466" type="line"/>
      <point x="315" y="608" type="line"/>
      <point x="299" y="613"/>
      <point x="283" y="616"/>
      <point x="262" y="616" type="curve" smooth="yes"/>
      <point x="241" y="616"/>
      <point x="226" y="613"/>
      <point x="209" y="608" type="curve"/>
      <point x="209" y="418" type="line"/>
      <point x="414" y="418" type="line"/>
      <point x="414" y="299" type="line"/>
      <point x="209" y="299" type="line"/>
      <point x="209" y="124" type="line"/>
      <point x="473" y="124" type="line"/>
    </contour>
  </outline>
</glyph>
<glyph name="yen" format="1">
  <advance width="515"/>
  <unicode hex="00A5"/>
  <outline>
    <contour>
      <point x="478" y="304" type="line"/>
      <point x="440" y="278"/>
      <point x="388" y="262"/>
      <point x="339" y="256" type="curve"/>
      <point x="339" y="197" type="line"/>
      <point x="427" y="197" type="line"/>
      <point x="427" y="81" type="line"/>
      <point x="339" y="81" type="line"/>
      <point x="339" y="0" type="line"/>
      <point x="177" y="0" type="line"/>
      <point x="177" y="81" type="line"/>
      <point x="89" y="81" type="line"/>
      <point x="89" y="197" type="line"/>
      <point x="177" y="197" type="line"/>
      <point x="177" y="256" type="line"/>
      <point x="128" y="262"/>
      <point x="75" y="278"/>
      <point x="36" y="304" type="curve"/>
      <point x="36" y="720" type="line"/>
      <point x="199" y="720" type="line"/>
      <point x="199" y="376" type="line"/>
      <point x="213" y="368"/>
      <point x="234" y="365"/>
      <point x="258" y="365" type="curve" smooth="yes"/>
      <point x="280" y="365"/>
      <point x="302" y="368"/>
      <point x="316" y="376" type="curve"/>
      <point x="316" y="720" type="line"/>
      <point x="478" y="720" type="line"/>
    </contour>
  </outline>
</glyph>
<glyph name="section" format="1">
  <advance width="501"/>
  <unicode hex="00A7"/>
  <outline>
    <contour>
      <point x="466" y="133" type="line"/>
      <point x="451" y="123"/>
      <point x="434" y="114"/>
      <point x="414" y="108" type="curve"/>
      <point x="463" y="65" type="line"/>
      <point x="463" y="-139" type="line"/>
      <point x="402" y="-170"/>
      <point x="328" y="-183"/>
      <point x="252" y="-183" type="curve" smooth="yes"/>
      <point x="176" y="-183"/>
      <point x="103" y="-170"/>
      <point x="40" y="-139" type="curve"/>
      <point x="40" y="55" type="line"/>
      <point x="194" y="55" type="line"/>
      <point x="194" y="-64" type="line"/>
      <point x="210" y="-69"/>
      <point x="228" y="-71"/>
      <point x="251" y="-71" type="curve" smooth="yes"/>
      <point x="271" y="-71"/>
      <point x="289" y="-69"/>
      <point x="306" y="-64" type="curve"/>
      <point x="306" y="46" type="line"/>
      <point x="267" y="87" type="line"/>
      <point x="260" y="86"/>
      <point x="254" y="86"/>
      <point x="248" y="86" type="curve" smooth="yes"/>
      <point x="165" y="87"/>
      <point x="91" y="101"/>
      <point x="35" y="125" type="curve"/>
      <point x="35" y="412" type="line"/>
      <point x="50" y="422"/>
      <point x="67" y="431"/>
      <point x="88" y="437" type="curve"/>
      <point x="38" y="481" type="line"/>
      <point x="38" y="684" type="line"/>
      <point x="100" y="715"/>
      <point x="173" y="729"/>
      <point x="251" y="729" type="curve" smooth="yes"/>
      <point x="326" y="729"/>
      <point x="399" y="716"/>
      <point x="462" y="684" type="curve"/>
      <point x="462" y="491" type="line"/>
      <point x="308" y="491" type="line"/>
      <point x="308" y="609" type="line"/>
      <point x="292" y="615"/>
      <point x="273" y="617"/>
      <point x="252" y="617" type="curve" smooth="yes"/>
      <point x="230" y="617"/>
      <point x="213" y="615"/>
      <point x="196" y="609" type="curve"/>
      <point x="196" y="500" type="line"/>
      <point x="236" y="458" type="line"/>
      <point x="242" y="459"/>
      <point x="247" y="459"/>
      <point x="254" y="459" type="curve" smooth="yes"/>
      <point x="335" y="458"/>
      <point x="409" y="444"/>
      <point x="466" y="420" type="curve"/>
    </contour>
    <contour>
      <point x="312" y="197" type="curve"/>
      <point x="312" y="348" type="line"/>
      <point x="298" y="353"/>
      <point x="276" y="356"/>
      <point x="252" y="356" type="curve" smooth="yes"/>
      <point x="227" y="356"/>
      <point x="206" y="353"/>
      <point x="192" y="348" type="curve"/>
      <point x="192" y="197" type="line"/>
      <point x="206" y="191"/>
      <point x="227" y="188"/>
      <point x="252" y="188" type="curve" smooth="yes"/>
      <point x="276" y="188"/>
      <point x="298" y="191"/>
    </contour>
  </outline>
</glyph>
<glyph name="dieresis" format="1">
  <advance width="397"/>
  <unicode hex="00A8"/>
  <outline>
    <contour>
      <point x="354" y="521" type="line"/>
      <point x="223" y="521" type="line"/>
      <point x="223" y="669" type="line"/>
      <point x="354" y="669" type="line"/>
    </contour>
    <contour>
      <point x="175" y="521" type="line"/>
      <point x="43" y="521" type="line"/>
      <point x="43" y="669" type="line"/>
      <point x="175" y="669" type="line"/>
    </contour>
  </outline>
</glyph>
<glyph name="copyright" format="1">
  <advance width="631"/>
  <unicode hex="00A9"/>
  <outline>
    <contour>
      <point x="595" y="53" type="line"/>
      <point x="520" y="10"/>
      <point x="419" y="-9"/>
      <point x="316" y="-9" type="curve" smooth="yes"/>
      <point x="211" y="-9"/>
      <point x="109" y="10"/>
      <point x="35" y="53" type="curve"/>
      <point x="35" y="667" type="line"/>
      <point x="109" y="710"/>
      <point x="211" y="729"/>
      <point x="316" y="729" type="curve" smooth="yes"/>
      <point x="419" y="729"/>
      <point x="520" y="710"/>
      <point x="595" y="667" type="curve"/>
    </contour>
    <contour>
      <point x="508" y="104" type="curve"/>
      <point x="508" y="616" type="line"/>
      <point x="449" y="642"/>
      <point x="382" y="654"/>
      <point x="315" y="654" type="curve" smooth="yes"/>
      <point x="250" y="654"/>
      <point x="182" y="643"/>
      <point x="123" y="616" type="curve"/>
      <point x="123" y="104" type="line"/>
      <point x="182" y="77"/>
      <point x="250" y="66"/>
      <point x="315" y="66" type="curve" smooth="yes"/>
      <point x="382" y="66"/>
      <point x="449" y="78"/>
    </contour>
    <contour>
      <point x="456" y="140" type="line"/>
      <point x="416" y="118"/>
      <point x="364" y="109"/>
      <point x="315" y="109" type="curve" smooth="yes"/>
      <point x="266" y="109"/>
      <point x="214" y="118"/>
      <point x="172" y="140" type="curve"/>
      <point x="172" y="581" type="line"/>
      <point x="213" y="603"/>
      <point x="265" y="612"/>
      <point x="315" y="612" type="curve" smooth="yes"/>
      <point x="363" y="612"/>
      <point x="415" y="604"/>
      <point x="456" y="581" type="curve"/>
      <point x="456" y="412" type="line"/>
      <point x="351" y="412" type="line"/>
      <point x="351" y="527" type="line"/>
      <point x="340" y="531"/>
      <point x="328" y="533"/>
      <point x="315" y="533" type="curve" smooth="yes"/>
      <point x="302" y="533"/>
      <point x="289" y="531"/>
      <point x="277" y="527" type="curve"/>
      <point x="277" y="195" type="line"/>
      <point x="289" y="191"/>
      <point x="301" y="189"/>
      <point x="315" y="189" type="curve" smooth="yes"/>
      <point x="327" y="189"/>
      <point x="340" y="190"/>
      <point x="351" y="195" type="curve"/>
      <point x="351" y="310" type="line"/>
      <point x="456" y="310" type="line"/>
    </contour>
  </outline>
</glyph>
<glyph name="ordfeminine" format="1">
  <advance width="369"/>
  <unicode hex="00AA"/>
  <outline>
    <contour>
      <point x="335" y="353" type="line"/>
      <point x="293" y="331"/>
      <point x="246" y="319"/>
      <point x="185" y="319" type="curve" smooth="yes"/>
      <point x="124" y="319"/>
      <point x="76" y="330"/>
      <point x="34" y="353" type="curve"/>
      <point x="34" y="540" type="line"/>
      <point x="70" y="556"/>
      <point x="114" y="563"/>
      <point x="169" y="563" type="curve" smooth="yes"/>
      <point x="188" y="563"/>
      <point x="206" y="561"/>
      <point x="219" y="557" type="curve"/>
      <point x="219" y="648" type="line"/>
      <point x="209" y="651"/>
      <point x="199" y="653"/>
      <point x="185" y="653" type="curve" smooth="yes"/>
      <point x="172" y="653"/>
      <point x="162" y="652"/>
      <point x="152" y="648" type="curve"/>
      <point x="152" y="588" type="line"/>
      <point x="36" y="588" type="line"/>
      <point x="36" y="696" type="line"/>
      <point x="77" y="717"/>
      <point x="127" y="727"/>
      <point x="185" y="727" type="curve" smooth="yes"/>
      <point x="243" y="727"/>
      <point x="293" y="717"/>
      <point x="335" y="694" type="curve"/>
    </contour>
    <contour>
      <point x="219" y="395" type="curve"/>
      <point x="219" y="490" type="line"/>
      <point x="211" y="493"/>
      <point x="198" y="494"/>
      <point x="185" y="494" type="curve" smooth="yes"/>
      <point x="171" y="494"/>
      <point x="161" y="494"/>
      <point x="150" y="489" type="curve"/>
      <point x="150" y="395" type="line"/>
      <point x="159" y="392"/>
      <point x="170" y="390"/>
      <point x="185" y="390" type="curve" smooth="yes"/>
      <point x="199" y="390"/>
      <point x="210" y="392"/>
    </contour>
  </outline>
</glyph>
<glyph name="guillemotleft" format="1">
  <advance width="497"/>
  <unicode hex="00AB"/>
  <outline>
    <contour>
      <point x="471" y="13" type="line"/>
      <point x="254" y="176" type="line"/>
      <point x="254" y="304" type="line"/>
      <point x="471" y="467" type="line"/>
      <point x="471" y="321" type="line"/>
      <point x="359" y="240" type="line"/>
      <point x="471" y="160" type="line"/>
    </contour>
    <contour>
      <point x="237" y="13" type="line"/>
      <point x="19" y="176" type="line"/>
      <point x="19" y="304" type="line"/>
      <point x="237" y="467" type="line"/>
      <point x="237" y="321" type="line"/>
      <point x="124" y="240" type="line"/>
      <point x="237" y="160" type="line"/>
    </contour>
  </outline>
</glyph>
<glyph name="macron" format="1">
  <advance width="397"/>
  <unicode hex="00AF"/>
  <unicode hex="02C9"/>
  <outline>
    <contour>
      <point x="356" y="523" type="line"/>
      <point x="42" y="523" type="line"/>
      <point x="42" y="630" type="line"/>
      <point x="356" y="630" type="line"/>
    </contour>
  </outline>
</glyph>
<glyph name="degree" format="1">
  <advance width="388"/>
  <unicode hex="00B0"/>
  <outline>
    <contour>
      <point x="357" y="359" type="line"/>
      <point x="311" y="335"/>
      <point x="252" y="320"/>
      <point x="194" y="320" type="curve" smooth="yes"/>
      <point x="137" y="320"/>
      <point x="78" y="334"/>
      <point x="31" y="359" type="curve"/>
      <point x="31" y="690" type="line"/>
      <point x="77" y="715"/>
      <point x="137" y="729"/>
      <point x="194" y="729" type="curve" smooth="yes"/>
      <point x="251" y="729"/>
      <point x="310" y="716"/>
      <point x="357" y="690" type="curve"/>
    </contour>
    <contour>
      <point x="233" y="418" type="curve"/>
      <point x="233" y="630" type="line"/>
      <point x="223" y="635"/>
      <point x="210" y="637"/>
      <point x="194" y="637" type="curve" smooth="yes"/>
      <point x="179" y="637"/>
      <point x="165" y="635"/>
      <point x="154" y="630" type="curve"/>
      <point x="154" y="418" type="line"/>
      <point x="165" y="413"/>
      <point x="179" y="411"/>
      <point x="194" y="411" type="curve" smooth="yes"/>
      <point x="210" y="411"/>
      <point x="223" y="413"/>
    </contour>
  </outline>
</glyph>
<glyph name="acute" format="1">
  <advance width="397"/>
  <unicode hex="00B4"/>
  <outline>
    <contour>
      <point x="309" y="682" type="line"/>
      <point x="223" y="521" type="line"/>
      <point x="89" y="521" type="line"/>
      <point x="167" y="682" type="line"/>
    </contour>
  </outline>
</glyph>
<glyph name="paragraph" format="1">
  <advance width="613"/>
  <unicode hex="00B6"/>
  <outline>
    <contour>
      <point x="573" y="0" type="line"/>
      <point x="438" y="0" type="line"/>
      <point x="438" y="614" type="line"/>
      <point x="396" y="614" type="line"/>
      <point x="396" y="0" type="line"/>
      <point x="261" y="0" type="line"/>
      <point x="261" y="261" type="line"/>
      <point x="253" y="261" type="line" smooth="yes"/>
      <point x="155" y="261"/>
      <point x="80" y="282"/>
      <point x="23" y="322" type="curve"/>
      <point x="23" y="659" type="line"/>
      <point x="81" y="700"/>
      <point x="155" y="720"/>
      <point x="253" y="720" type="curve" smooth="yes"/>
      <point x="573" y="720" type="line"/>
    </contour>
    <contour>
      <point x="262" y="367" type="curve"/>
      <point x="262" y="614" type="line"/>
      <point x="261" y="614"/>
      <point x="248" y="614"/>
      <point x="248" y="614" type="curve" smooth="yes"/>
      <point x="214" y="614"/>
      <point x="194" y="609"/>
      <point x="179" y="599" type="curve"/>
      <point x="179" y="382" type="line"/>
      <point x="195" y="372"/>
      <point x="215" y="367"/>
      <point x="248" y="367" type="curve" smooth="yes"/>
      <point x="248" y="367"/>
      <point x="261" y="367"/>
    </contour>
  </outline>
</glyph>
<glyph name="periodcentered" format="1">
  <advance width="208"/>
  <unicode hex="00B7"/>
  <unicode hex="2219"/>
  <outline>
    <contour>
      <point x="179" y="219" type="line"/>
      <point x="29" y="219" type="line"/>
      <point x="29" y="371" type="line"/>
      <point x="179" y="371" type="line"/>
    </contour>
  </outline>
</glyph>
<glyph name="cedilla" format="1">
  <advance width="397"/>
  <unicode hex="00B8"/>
  <outline>
    <contour>
      <point x="257" y="-99" type="line"/>
      <point x="214" y="-125"/>
      <point x="163" y="-135"/>
      <point x="104" y="-135" type="curve" smooth="yes"/>
      <point x="90" y="-135" type="line"/>
      <point x="90" y="-48" type="line"/>
      <point x="104" y="-48" type="line" smooth="yes"/>
      <point x="119" y="-48"/>
      <point x="133" y="-46"/>
      <point x="142" y="-39" type="curve"/>
      <point x="142" y="10" type="line"/>
      <point x="257" y="10" type="line"/>
    </contour>
  </outline>
</glyph>
<glyph name="ordmasculine" format="1">
  <advance width="369"/>
  <unicode hex="00BA"/>
  <outline>
    <contour>
      <point x="338" y="357" type="line"/>
      <point x="299" y="335"/>
      <point x="249" y="319"/>
      <point x="185" y="319" type="curve" smooth="yes"/>
      <point x="122" y="319"/>
      <point x="70" y="334"/>
      <point x="31" y="357" type="curve"/>
      <point x="31" y="690" type="line"/>
      <point x="70" y="713"/>
      <point x="121" y="727"/>
      <point x="185" y="727" type="curve" smooth="yes"/>
      <point x="248" y="727"/>
      <point x="298" y="714"/>
      <point x="338" y="690" type="curve"/>
    </contour>
    <contour>
      <point x="221" y="411" type="curve"/>
      <point x="221" y="636" type="line"/>
      <point x="213" y="640"/>
      <point x="200" y="643"/>
      <point x="185" y="643" type="curve" smooth="yes"/>
      <point x="170" y="643"/>
      <point x="157" y="640"/>
      <point x="148" y="636" type="curve"/>
      <point x="148" y="411" type="line"/>
      <point x="157" y="407"/>
      <point x="169" y="404"/>
      <point x="185" y="404" type="curve" smooth="yes"/>
      <point x="200" y="404"/>
      <point x="212" y="407"/>
    </contour>
  </outline>
</glyph>
<glyph name="guillemotright" format="1">
  <advance width="497"/>
  <unicode hex="00BB"/>
  <outline>
    <contour>
      <point x="478" y="176" type="line"/>
      <point x="260" y="13" type="line"/>
      <point x="260" y="160" type="line"/>
      <point x="373" y="240" type="line"/>
      <point x="260" y="321" type="line"/>
      <point x="260" y="467" type="line"/>
      <point x="478" y="304" type="line"/>
    </contour>
    <contour>
      <point x="243" y="176" type="line"/>
      <point x="25" y="13" type="line"/>
      <point x="25" y="160" type="line"/>
      <point x="138" y="240" type="line"/>
      <point x="25" y="321" type="line"/>
      <point x="25" y="467" type="line"/>
      <point x="243" y="304" type="line"/>
    </contour>
  </outline>
</glyph>
<glyph name="questiondown" format="1">
  <advance width="467"/>
  <unicode hex="00BF"/>
  <outline>
    <contour>
      <point x="313" y="577" type="line"/>
      <point x="154" y="577" type="line"/>
      <point x="154" y="720" type="line"/>
      <point x="313" y="720" type="line"/>
    </contour>
    <contour>
      <point x="445" y="39" type="line"/>
      <point x="383" y="5"/>
      <point x="309" y="-9"/>
      <point x="234" y="-9" type="curve" smooth="yes"/>
      <point x="157" y="-9"/>
      <point x="84" y="6"/>
      <point x="22" y="39" type="curve"/>
      <point x="22" y="336" type="line"/>
      <point x="155" y="431" type="line"/>
      <point x="155" y="536" type="line"/>
      <point x="312" y="536" type="line"/>
      <point x="312" y="361" type="line"/>
      <point x="180" y="266" type="line"/>
      <point x="180" y="115" type="line"/>
      <point x="197" y="109"/>
      <point x="214" y="106"/>
      <point x="236" y="106" type="curve" smooth="yes"/>
      <point x="257" y="106"/>
      <point x="276" y="109"/>
      <point x="292" y="115" type="curve"/>
      <point x="292" y="262" type="line"/>
      <point x="445" y="262" type="line"/>
    </contour>
  </outline>
</glyph>
<glyph name="Aring" format="1">
  <advance width="515"/>
  <unicode hex="00C5"/>
  <outline>
    <contour>
      <point x="479" y="0" type="line"/>
      <point x="318" y="0" type="line"/>
      <point x="318" y="261" type="line"/>
      <point x="198" y="261" type="line"/>
      <point x="198" y="0" type="line"/>
      <point x="36" y="0" type="line"/>
      <point x="36" y="676" type="line"/>
      <point x="95" y="711"/>
      <point x="178" y="729"/>
      <point x="258" y="729" type="curve" smooth="yes"/>
      <point x="338" y="729"/>
      <point x="420" y="711"/>
      <point x="479" y="676" type="curve"/>
    </contour>
    <contour>
      <point x="318" y="375" type="line"/>
      <point x="318" y="604" type="line"/>
      <point x="301" y="612"/>
      <point x="280" y="616"/>
      <point x="258" y="616" type="curve" smooth="yes"/>
      <point x="235" y="616"/>
      <point x="215" y="612"/>
      <point x="198" y="604" type="curve"/>
      <point x="198" y="375" type="line"/>
    </contour>
    <contour>
      <point x="409" y="780" type="line"/>
      <point x="368" y="761"/>
      <point x="317" y="751"/>
      <point x="258" y="751" type="curve" smooth="yes"/>
      <point x="199" y="751"/>
      <point x="148" y="760"/>
      <point x="106" y="780" type="curve"/>
      <point x="106" y="899" type="line"/>
      <point x="148" y="919"/>
      <point x="199" y="928"/>
      <point x="258" y="928" type="curve" smooth="yes"/>
      <point x="317" y="928"/>
      <point x="368" y="918"/>
      <point x="409" y="899" type="curve"/>
    </contour>
    <contour>
      <point x="295" y="817" type="curve"/>
      <point x="295" y="862" type="line"/>
      <point x="285" y="865"/>
      <point x="272" y="867"/>
      <point x="258" y="867" type="curve" smooth="yes"/>
      <point x="244" y="867"/>
      <point x="231" y="865"/>
      <point x="221" y="862" type="curve"/>
      <point x="221" y="817" type="line"/>
      <point x="231" y="814"/>
      <point x="244" y="812"/>
      <point x="258" y="812" type="curve" smooth="yes"/>
      <point x="272" y="812"/>
      <point x="285" y="814"/>
    </contour>
  </outline>
</glyph>
<glyph name="AE" format="1">
  <advance width="797"/>
  <unicode hex="00C6"/>
  <outline>
    <contour>
      <point x="763" y="38" type="line"/>
      <point x="699" y="6"/>
      <point x="618" y="-9"/>
      <point x="539" y="-9" type="curve" smooth="yes"/>
      <point x="460" y="-9"/>
      <point x="378" y="8"/>
      <point x="318" y="40" type="curve"/>
      <point x="318" y="261" type="line"/>
      <point x="198" y="261" type="line"/>
      <point x="198" y="0" type="line"/>
      <point x="36" y="0" type="line"/>
      <point x="36" y="676" type="line"/>
      <point x="95" y="711"/>
      <point x="178" y="729"/>
      <point x="258" y="729" type="curve" smooth="yes"/>
      <point x="306" y="729"/>
      <point x="358" y="720"/>
      <point x="397" y="703" type="curve"/>
      <point x="435" y="718"/>
      <point x="490" y="729"/>
      <point x="539" y="729" type="curve" smooth="yes"/>
      <point x="617" y="729"/>
      <point x="698" y="715"/>
      <point x="763" y="682" type="curve"/>
      <point x="763" y="466" type="line"/>
      <point x="601" y="466" type="line"/>
      <point x="601" y="606" type="line"/>
      <point x="582" y="612"/>
      <point x="562" y="615"/>
      <point x="539" y="615" type="curve" smooth="yes"/>
      <point x="516" y="615"/>
      <point x="497" y="612"/>
      <point x="479" y="606" type="curve"/>
      <point x="479" y="426" type="line"/>
      <point x="706" y="426" type="line"/>
      <point x="706" y="308" type="line"/>
      <point x="479" y="308" type="line"/>
      <point x="479" y="114" type="line"/>
      <point x="496" y="108"/>
      <point x="516" y="105"/>
      <point x="539" y="105" type="curve" smooth="yes"/>
      <point x="562" y="105"/>
      <point x="581" y="107"/>
      <point x="601" y="114" type="curve"/>
      <point x="601" y="256" type="line"/>
      <point x="763" y="256" type="line"/>
    </contour>
    <contour>
      <point x="318" y="375" type="line"/>
      <point x="318" y="604" type="line"/>
      <point x="301" y="612"/>
      <point x="280" y="616"/>
      <point x="258" y="616" type="curve" smooth="yes"/>
      <point x="235" y="616"/>
      <point x="215" y="612"/>
      <point x="198" y="604" type="curve"/>
      <point x="198" y="375" type="line"/>
    </contour>
  </outline>
</glyph>
<glyph name="Ccedilla" format="1">
  <advance width="522"/>
  <unicode hex="00C7"/>
  <outline>
    <contour>
      <point x="487" y="42" type="line"/>
      <point x="439" y="14"/>
      <point x="379" y="-1"/>
      <point x="319" y="-6" type="curve"/>
      <point x="319" y="-99" type="line"/>
      <point x="276" y="-125"/>
      <point x="224" y="-135"/>
      <point x="165" y="-135" type="curve" smooth="yes"/>
      <point x="150" y="-135" type="line"/>
      <point x="150" y="-48" type="line"/>
      <point x="165" y="-48" type="line" smooth="yes"/>
      <point x="179" y="-48"/>
      <point x="194" y="-46"/>
      <point x="203" y="-39" type="curve"/>
      <point x="203" y="-6" type="line"/>
      <point x="143" y="-1"/>
      <point x="84" y="14"/>
      <point x="35" y="42" type="curve"/>
      <point x="35" y="678" type="line"/>
      <point x="99" y="713"/>
      <point x="182" y="729"/>
      <point x="262" y="729" type="curve" smooth="yes"/>
      <point x="339" y="729"/>
      <point x="423" y="714"/>
      <point x="487" y="678" type="curve"/>
      <point x="487" y="434" type="line"/>
      <point x="326" y="434" type="line"/>
      <point x="326" y="603" type="line"/>
      <point x="307" y="615"/>
      <point x="284" y="620"/>
      <point x="261" y="620" type="curve" smooth="yes"/>
      <point x="238" y="620"/>
      <point x="217" y="615"/>
      <point x="197" y="603" type="curve"/>
      <point x="197" y="117" type="line"/>
      <point x="216" y="105"/>
      <point x="238" y="100"/>
      <point x="261" y="100" type="curve" smooth="yes"/>
      <point x="284" y="100"/>
      <point x="306" y="105"/>
      <point x="326" y="117" type="curve"/>
      <point x="326" y="286" type="line"/>
      <point x="487" y="286" type="line"/>
    </contour>
  </outline>
</glyph>
<glyph name="Eth" format="1">
  <advance width="541"/>
  <unicode hex="00D0"/>
  <outline>
    <contour>
      <point x="506" y="69" type="line"/>
      <point x="446" y="25"/>
      <point x="363" y="0"/>
      <point x="266" y="0" type="curve" smooth="yes"/>
      <point x="53" y="0" type="line"/>
      <point x="53" y="311" type="line"/>
      <point x="14" y="311" type="line"/>
      <point x="14" y="429" type="line"/>
      <point x="53" y="429" type="line"/>
      <point x="53" y="720" type="line"/>
      <point x="266" y="720" type="line" smooth="yes"/>
      <point x="362" y="720"/>
      <point x="445" y="696"/>
      <point x="506" y="651" type="curve"/>
    </contour>
    <contour>
      <point x="344" y="132" type="curve"/>
      <point x="344" y="588" type="line"/>
      <point x="328" y="599"/>
      <point x="300" y="606"/>
      <point x="265" y="606" type="curve" smooth="yes"/>
      <point x="212" y="606" type="line"/>
      <point x="212" y="429" type="line"/>
      <point x="259" y="429" type="line"/>
      <point x="259" y="311" type="line"/>
      <point x="212" y="311" type="line"/>
      <point x="212" y="114" type="line"/>
      <point x="265" y="114" type="line" smooth="yes"/>
      <point x="299" y="114"/>
      <point x="327" y="121"/>
    </contour>
  </outline>
</glyph>
<glyph name="Oslash" format="1">
  <advance width="533"/>
  <unicode hex="00D8"/>
  <outline>
    <contour>
      <point x="497" y="46" type="line"/>
      <point x="435" y="9"/>
      <point x="355" y="-8"/>
      <point x="272" y="-9" type="curve" smooth="yes"/>
      <point x="256" y="-9"/>
      <point x="241" y="-8"/>
      <point x="225" y="-6" type="curve"/>
      <point x="204" y="-73" type="line"/>
      <point x="40" y="-73" type="line"/>
      <point x="76" y="25" type="line"/>
      <point x="62" y="32"/>
      <point x="48" y="38"/>
      <point x="35" y="46" type="curve"/>
      <point x="35" y="675" type="line"/>
      <point x="97" y="711"/>
      <point x="178" y="728"/>
      <point x="261" y="729" type="curve" smooth="yes"/>
      <point x="276" y="729"/>
      <point x="292" y="728"/>
      <point x="307" y="726" type="curve"/>
      <point x="329" y="793" type="line"/>
      <point x="492" y="793" type="line"/>
      <point x="456" y="695" type="line"/>
      <point x="471" y="690"/>
      <point x="484" y="683"/>
      <point x="497" y="675" type="curve"/>
    </contour>
    <contour>
      <point x="336" y="123" type="curve"/>
      <point x="336" y="598" type="line"/>
      <point x="317" y="606"/>
      <point x="294" y="610"/>
      <point x="266" y="610" type="curve" smooth="yes"/>
      <point x="239" y="610"/>
      <point x="216" y="606"/>
      <point x="197" y="598" type="curve"/>
      <point x="197" y="123" type="line"/>
      <point x="216" y="114"/>
      <point x="239" y="110"/>
      <point x="266" y="110" type="curve" smooth="yes"/>
      <point x="293" y="110"/>
      <point x="316" y="114"/>
    </contour>
  </outline>
</glyph>
<glyph name="Thorn" format="1">
  <advance width="498"/>
  <unicode hex="00DE"/>
  <outline>
    <contour>
      <point x="475" y="197" type="line"/>
      <point x="418" y="156"/>
      <point x="343" y="135"/>
      <point x="245" y="135" type="curve" smooth="yes"/>
      <point x="202" y="135" type="line"/>
      <point x="202" y="0" type="line"/>
      <point x="39" y="0" type="line"/>
      <point x="39" y="720" type="line"/>
      <point x="200" y="720" type="line"/>
      <point x="200" y="599" type="line"/>
      <point x="245" y="599" type="line" smooth="yes"/>
      <point x="343" y="599"/>
      <point x="417" y="579"/>
      <point x="475" y="537" type="curve"/>
    </contour>
    <contour>
      <point x="313" y="259" type="curve"/>
      <point x="313" y="475" type="line"/>
      <point x="298" y="485"/>
      <point x="278" y="490"/>
      <point x="244" y="490" type="curve" smooth="yes"/>
      <point x="200" y="490" type="line"/>
      <point x="200" y="243" type="line"/>
      <point x="244" y="243" type="line" smooth="yes"/>
      <point x="277" y="243"/>
      <point x="297" y="248"/>
    </contour>
  </outline>
</glyph>
<glyph name="germandbls" format="1">
  <advance width="413"/>
  <unicode hex="00DF"/>
  <outline>
    <contour>
      <point x="388" y="41" type="line"/>
      <point x="341" y="11"/>
      <point x="270" y="0"/>
      <point x="203" y="-1" type="curve"/>
      <point x="203" y="112" type="line"/>
      <point x="220" y="112"/>
      <point x="238" y="115"/>
      <point x="249" y="120" type="curve"/>
      <point x="249" y="293" type="line"/>
      <point x="239" y="303"/>
      <point x="217" y="311"/>
      <point x="189" y="311" type="curve" smooth="yes"/>
      <point x="170" y="311" type="line"/>
      <point x="170" y="0" type="line"/>
      <point x="32" y="0" type="line"/>
      <point x="32" y="688" type="line"/>
      <point x="77" y="713"/>
      <point x="135" y="727"/>
      <point x="208" y="727" type="curve" smooth="yes"/>
      <point x="280" y="727"/>
      <point x="338" y="713"/>
      <point x="384" y="688" type="curve"/>
      <point x="384" y="404" type="line"/>
      <point x="366" y="388"/>
      <point x="328" y="373"/>
      <point x="289" y="366" type="curve"/>
      <point x="328" y="358"/>
      <point x="366" y="346"/>
      <point x="388" y="327" type="curve"/>
    </contour>
    <contour>
      <point x="245" y="438" type="curve"/>
      <point x="245" y="622" type="line"/>
      <point x="236" y="626"/>
      <point x="225" y="628"/>
      <point x="208" y="628" type="curve" smooth="yes"/>
      <point x="191" y="628"/>
      <point x="179" y="626"/>
      <point x="170" y="622" type="curve"/>
      <point x="170" y="420" type="line"/>
      <point x="189" y="420" type="line" smooth="yes"/>
      <point x="213" y="420"/>
      <point x="233" y="427"/>
    </contour>
  </outline>
</glyph>
<glyph name="ae" format="1">
  <advance width="621"/>
  <unicode hex="00E6"/>
  <outline>
    <contour>
      <point x="594" y="32" type="line"/>
      <point x="545" y="5"/>
      <point x="487" y="-9"/>
      <point x="418" y="-9" type="curve" smooth="yes"/>
      <point x="379" y="-9"/>
      <point x="344" y="-3"/>
      <point x="312" y="8" type="curve"/>
      <point x="280" y="-2"/>
      <point x="245" y="-9"/>
      <point x="203" y="-9" type="curve" smooth="yes"/>
      <point x="132" y="-9"/>
      <point x="76" y="3"/>
      <point x="26" y="30" type="curve"/>
      <point x="26" y="268" type="line"/>
      <point x="69" y="286"/>
      <point x="120" y="294"/>
      <point x="185" y="294" type="curve" smooth="yes"/>
      <point x="207" y="294"/>
      <point x="226" y="291"/>
      <point x="241" y="287" type="curve"/>
      <point x="241" y="396" type="line"/>
      <point x="230" y="400"/>
      <point x="220" y="402"/>
      <point x="203" y="402" type="curve" smooth="yes"/>
      <point x="188" y="402"/>
      <point x="178" y="401"/>
      <point x="166" y="397" type="curve"/>
      <point x="166" y="322" type="line"/>
      <point x="28" y="322" type="line"/>
      <point x="28" y="452" type="line"/>
      <point x="77" y="477"/>
      <point x="135" y="489"/>
      <point x="203" y="489" type="curve" smooth="yes"/>
      <point x="243" y="489"/>
      <point x="279" y="482"/>
      <point x="312" y="471" type="curve"/>
      <point x="343" y="482"/>
      <point x="378" y="489"/>
      <point x="417" y="489" type="curve" smooth="yes"/>
      <point x="487" y="489"/>
      <point x="545" y="475"/>
      <point x="594" y="447" type="curve"/>
      <point x="594" y="205" type="line"/>
      <point x="379" y="205" type="line"/>
      <point x="379" y="85" type="line"/>
      <point x="390" y="81"/>
      <point x="403" y="79"/>
      <point x="418" y="79" type="curve" smooth="yes"/>
      <point x="432" y="79"/>
      <point x="444" y="80"/>
      <point x="455" y="85" type="curve"/>
      <point x="455" y="171" type="line"/>
      <point x="594" y="171" type="line"/>
    </contour>
    <contour>
      <point x="455" y="280" type="line"/>
      <point x="455" y="394" type="line"/>
      <point x="445" y="398"/>
      <point x="434" y="401"/>
      <point x="417" y="401" type="curve" smooth="yes"/>
      <point x="402" y="401"/>
      <point x="390" y="398"/>
      <point x="379" y="394" type="curve"/>
      <point x="379" y="280" type="line"/>
    </contour>
    <contour>
      <point x="241" y="82" type="curve"/>
      <point x="241" y="208" type="line"/>
      <point x="232" y="211"/>
      <point x="218" y="213"/>
      <point x="203" y="213" type="curve" smooth="yes"/>
      <point x="188" y="213"/>
      <point x="175" y="212"/>
      <point x="164" y="207" type="curve"/>
      <point x="164" y="82" type="line"/>
      <point x="173" y="78"/>
      <point x="185" y="76"/>
      <point x="203" y="76" type="curve" smooth="yes"/>
      <point x="220" y="76"/>
      <point x="231" y="78"/>
    </contour>
  </outline>
</glyph>
<glyph name="ccedilla" format="1">
  <advance width="412"/>
  <unicode hex="00E7"/>
  <outline>
    <contour>
      <point x="385" y="32" type="line"/>
      <point x="351" y="12"/>
      <point x="310" y="0"/>
      <point x="265" y="-5" type="curve"/>
      <point x="265" y="-99" type="line"/>
      <point x="221" y="-125"/>
      <point x="170" y="-135"/>
      <point x="111" y="-135" type="curve" smooth="yes"/>
      <point x="97" y="-135" type="line"/>
      <point x="97" y="-48" type="line"/>
      <point x="111" y="-48" type="line" smooth="yes"/>
      <point x="126" y="-48"/>
      <point x="140" y="-46"/>
      <point x="149" y="-39" type="curve"/>
      <point x="149" y="-5" type="line"/>
      <point x="104" y="-1"/>
      <point x="63" y="11"/>
      <point x="28" y="32" type="curve"/>
      <point x="28" y="449" type="line"/>
      <point x="77" y="476"/>
      <point x="137" y="489"/>
      <point x="207" y="489" type="curve" smooth="yes"/>
      <point x="275" y="489"/>
      <point x="336" y="476"/>
      <point x="385" y="449" type="curve"/>
      <point x="385" y="279" type="line"/>
      <point x="247" y="279" type="line"/>
      <point x="247" y="386" type="line"/>
      <point x="236" y="393"/>
      <point x="223" y="395"/>
      <point x="207" y="395" type="curve" smooth="yes"/>
      <point x="191" y="395"/>
      <point x="177" y="393"/>
      <point x="166" y="386" type="curve"/>
      <point x="166" y="94" type="line"/>
      <point x="177" y="87"/>
      <point x="191" y="85"/>
      <point x="207" y="85" type="curve" smooth="yes"/>
      <point x="222" y="85"/>
      <point x="235" y="87"/>
      <point x="247" y="94" type="curve"/>
      <point x="247" y="202" type="line"/>
      <point x="385" y="202" type="line"/>
    </contour>
  </outline>
</glyph>
<glyph name="oslash" format="1">
  <advance width="418"/>
  <unicode hex="00F8"/>
  <outline>
    <contour>
      <point x="390" y="35" type="line"/>
      <point x="346" y="9"/>
      <point x="288" y="-8"/>
      <point x="216" y="-9" type="curve" smooth="yes"/>
      <point x="213" y="-9"/>
      <point x="211" y="-9"/>
      <point x="208" y="-9" type="curve"/>
      <point x="189" y="-73" type="line"/>
      <point x="32" y="-73" type="line"/>
      <point x="63" y="17" type="line"/>
      <point x="51" y="22"/>
      <point x="39" y="28"/>
      <point x="28" y="35" type="curve"/>
      <point x="28" y="445" type="line"/>
      <point x="72" y="471"/>
      <point x="130" y="488"/>
      <point x="203" y="489" type="curve" smooth="yes"/>
      <point x="205" y="489"/>
      <point x="208" y="489"/>
      <point x="210" y="489" type="curve"/>
      <point x="230" y="550" type="line"/>
      <point x="386" y="550" type="line"/>
      <point x="355" y="463" type="line"/>
      <point x="368" y="458"/>
      <point x="380" y="452"/>
      <point x="390" y="445" type="curve"/>
    </contour>
    <contour>
      <point x="252" y="101" type="curve"/>
      <point x="252" y="379" type="line"/>
      <point x="242" y="384"/>
      <point x="228" y="387"/>
      <point x="209" y="387" type="curve" smooth="yes"/>
      <point x="191" y="387"/>
      <point x="176" y="384"/>
      <point x="166" y="379" type="curve"/>
      <point x="166" y="101" type="line"/>
      <point x="176" y="96"/>
      <point x="190" y="93"/>
      <point x="209" y="93" type="curve" smooth="yes"/>
      <point x="227" y="93"/>
      <point x="241" y="96"/>
    </contour>
  </outline>
</glyph>
<glyph name="thorn" format="1">
  <advance width="415"/>
  <unicode hex="00FE"/>
  <outline>
    <contour>
      <point x="392" y="37" type="line"/>
      <point x="349" y="8"/>
      <point x="292" y="-6"/>
      <point x="232" y="-6" type="curve" smooth="yes"/>
      <point x="207" y="-6"/>
      <point x="185" y="-1"/>
      <point x="169" y="4" type="curve"/>
      <point x="169" y="-175" type="line"/>
      <point x="30" y="-175" type="line"/>
      <point x="30" y="720" type="line"/>
      <point x="169" y="720" type="line"/>
      <point x="169" y="476" type="line"/>
      <point x="185" y="481"/>
      <point x="207" y="486"/>
      <point x="232" y="486" type="curve" smooth="yes"/>
      <point x="292" y="486"/>
      <point x="349" y="472"/>
      <point x="392" y="443" type="curve"/>
    </contour>
    <contour>
      <point x="254" y="103" type="curve"/>
      <point x="254" y="377" type="line"/>
      <point x="244" y="382"/>
      <point x="230" y="385"/>
      <point x="211" y="385" type="curve" smooth="yes"/>
      <point x="192" y="385"/>
      <point x="179" y="382"/>
      <point x="168" y="377" type="curve"/>
      <point x="168" y="102" type="line"/>
      <point x="179" y="98"/>
      <point x="192" y="95"/>
      <point x="211" y="95" type="curve" smooth="yes"/>
      <point x="230" y="95"/>
      <point x="244" y="98"/>
    </contour>
  </outline>
</glyph>
<glyph name="Lslash" format="1">
  <advance width="417"/>
  <unicode hex="0141"/>
  <outline>
    <contour>
      <point x="397" y="0" type="line"/>
      <point x="52" y="0" type="line"/>
      <point x="52" y="280" type="line"/>
      <point x="14" y="265" type="line"/>
      <point x="14" y="401" type="line"/>
      <point x="52" y="417" type="line"/>
      <point x="52" y="720" type="line"/>
      <point x="212" y="720" type="line"/>
      <point x="212" y="465" type="line"/>
      <point x="292" y="496" type="line"/>
      <point x="292" y="360" type="line"/>
      <point x="212" y="329" type="line"/>
      <point x="212" y="132" type="line"/>
      <point x="397" y="132" type="line"/>
    </contour>
  </outline>
</glyph>
<glyph name="lslash" format="1">
  <advance width="236"/>
  <unicode hex="0142"/>
  <outline>
    <contour>
      <point x="225" y="330" type="line"/>
      <point x="188" y="315" type="line"/>
      <point x="188" y="0" type="line"/>
      <point x="48" y="0" type="line"/>
      <point x="48" y="272" type="line"/>
      <point x="11" y="258" type="line"/>
      <point x="11" y="394" type="line"/>
      <point x="48" y="409" type="line"/>
      <point x="48" y="720" type="line"/>
      <point x="188" y="720" type="line"/>
      <point x="188" y="452" type="line"/>
      <point x="225" y="466" type="line"/>
    </contour>
  </outline>
</glyph>
<glyph name="OE" format="1">
  <advance width="811"/>
  <unicode hex="0152"/>
  <outline>
    <contour>
      <point x="776" y="38" type="line"/>
      <point x="712" y="6"/>
      <point x="631" y="-9"/>
      <point x="552" y="-9" type="curve" smooth="yes"/>
      <point x="503" y="-9"/>
      <point x="448" y="2"/>
      <point x="410" y="17" type="curve"/>
      <point x="369" y="0"/>
      <point x="319" y="-9"/>
      <point x="264" y="-9" type="curve" smooth="yes"/>
      <point x="180" y="-10"/>
      <point x="100" y="8"/>
      <point x="35" y="43" type="curve"/>
      <point x="35" y="678" type="line"/>
      <point x="99" y="712"/>
      <point x="179" y="729"/>
      <point x="264" y="729" type="curve" smooth="yes"/>
      <point x="319" y="729"/>
      <point x="370" y="720"/>
      <point x="410" y="703" type="curve"/>
      <point x="448" y="718"/>
      <point x="503" y="729"/>
      <point x="552" y="729" type="curve" smooth="yes"/>
      <point x="630" y="729"/>
      <point x="711" y="715"/>
      <point x="776" y="682" type="curve"/>
      <point x="776" y="466" type="line"/>
      <point x="614" y="466" type="line"/>
      <point x="614" y="606" type="line"/>
      <point x="595" y="612"/>
      <point x="576" y="615"/>
      <point x="552" y="615" type="curve" smooth="yes"/>
      <point x="529" y="615"/>
      <point x="510" y="612"/>
      <point x="492" y="606" type="curve"/>
      <point x="492" y="426" type="line"/>
      <point x="720" y="426" type="line"/>
      <point x="720" y="308" type="line"/>
      <point x="492" y="308" type="line"/>
      <point x="492" y="114" type="line"/>
      <point x="510" y="108"/>
      <point x="529" y="105"/>
      <point x="552" y="105" type="curve" smooth="yes"/>
      <point x="575" y="105"/>
      <point x="594" y="107"/>
      <point x="614" y="114" type="curve"/>
      <point x="614" y="256" type="line"/>
      <point x="776" y="256" type="line"/>
    </contour>
    <contour>
      <point x="331" y="119" type="curve"/>
      <point x="331" y="600" type="line"/>
      <point x="312" y="607"/>
      <point x="291" y="611"/>
      <point x="264" y="611" type="curve" smooth="yes"/>
      <point x="237" y="611"/>
      <point x="216" y="607"/>
      <point x="197" y="599" type="curve"/>
      <point x="197" y="121" type="line"/>
      <point x="216" y="113"/>
      <point x="236" y="109"/>
      <point x="264" y="109" type="curve" smooth="yes"/>
      <point x="291" y="109"/>
      <point x="312" y="113"/>
    </contour>
  </outline>
</glyph>
<glyph name="oe" format="1">
  <advance width="627"/>
  <unicode hex="0153"/>
  <outline>
    <contour>
      <point x="599" y="32" type="line"/>
      <point x="551" y="5"/>
      <point x="492" y="-9"/>
      <point x="423" y="-9" type="curve" smooth="yes"/>
      <point x="384" y="-9"/>
      <point x="348" y="-3"/>
      <point x="315" y="9" type="curve"/>
      <point x="284" y="-1"/>
      <point x="248" y="-9"/>
      <point x="207" y="-9" type="curve" smooth="yes"/>
      <point x="133" y="-9"/>
      <point x="74" y="7"/>
      <point x="28" y="34" type="curve"/>
      <point x="28" y="446" type="line"/>
      <point x="74" y="472"/>
      <point x="132" y="489"/>
      <point x="207" y="489" type="curve" smooth="yes"/>
      <point x="249" y="489"/>
      <point x="284" y="481"/>
      <point x="316" y="470" type="curve"/>
      <point x="347" y="482"/>
      <point x="383" y="489"/>
      <point x="423" y="489" type="curve" smooth="yes"/>
      <point x="493" y="489"/>
      <point x="551" y="475"/>
      <point x="599" y="447" type="curve"/>
      <point x="599" y="205" type="line"/>
      <point x="384" y="205" type="line"/>
      <point x="384" y="90" type="line"/>
      <point x="395" y="85"/>
      <point x="409" y="83"/>
      <point x="423" y="83" type="curve" smooth="yes"/>
      <point x="437" y="83"/>
      <point x="449" y="85"/>
      <point x="461" y="90" type="curve"/>
      <point x="461" y="171" type="line"/>
      <point x="599" y="171" type="line"/>
    </contour>
    <contour>
      <point x="461" y="280" type="curve"/>
      <point x="461" y="394" type="line"/>
      <point x="451" y="398"/>
      <point x="439" y="401"/>
      <point x="423" y="401" type="curve" smooth="yes"/>
      <point x="407" y="401"/>
      <point x="395" y="398"/>
      <point x="384" y="394" type="curve"/>
      <point x="384" y="280" type="line"/>
      <point x="385" y="280"/>
      <point x="460" y="280"/>
    </contour>
    <contour>
      <point x="247" y="99" type="curve"/>
      <point x="247" y="384" type="line"/>
      <point x="237" y="388"/>
      <point x="225" y="392"/>
      <point x="207" y="392" type="curve" smooth="yes"/>
      <point x="189" y="392"/>
      <point x="176" y="388"/>
      <point x="166" y="384" type="curve"/>
      <point x="166" y="99" type="line"/>
      <point x="176" y="95"/>
      <point x="188" y="91"/>
      <point x="207" y="91" type="curve" smooth="yes"/>
      <point x="225" y="91"/>
      <point x="236" y="95"/>
    </contour>
  </outline>
</glyph>
<glyph name="florin" format="1">
  <advance width="278"/>
  <unicode hex="0192"/>
  <outline>
    <contour>
      <point x="261" y="620" type="line"/>
      <point x="232" y="620" type="line" smooth="yes"/>
      <point x="216" y="620"/>
      <point x="201" y="617"/>
      <point x="190" y="611" type="curve"/>
      <point x="190" y="480" type="line"/>
      <point x="255" y="480" type="line"/>
      <point x="255" y="372" type="line"/>
      <point x="190" y="372" type="line"/>
      <point x="190" y="-135" type="line"/>
      <point x="145" y="-164"/>
      <point x="93" y="-178"/>
      <point x="30" y="-178" type="curve" smooth="yes"/>
      <point x="-13" y="-178" type="line"/>
      <point x="-13" y="-75" type="line"/>
      <point x="9" y="-75" type="line" smooth="yes"/>
      <point x="24" y="-75"/>
      <point x="39" y="-72"/>
      <point x="50" y="-66" type="curve"/>
      <point x="50" y="372" type="line"/>
      <point x="23" y="372" type="line"/>
      <point x="23" y="480" type="line"/>
      <point x="50" y="480" type="line"/>
      <point x="50" y="680" type="line"/>
      <point x="95" y="709"/>
      <point x="148" y="723"/>
      <point x="210" y="723" type="curve" smooth="yes"/>
      <point x="261" y="723" type="line"/>
    </contour>
  </outline>
</glyph>
<glyph name="circumflex" format="1">
  <advance width="397"/>
  <unicode hex="02C6"/>
  <outline>
    <contour>
      <point x="361" y="521" type="line"/>
      <point x="239" y="521" type="line"/>
      <point x="199" y="612" type="line"/>
      <point x="159" y="521" type="line"/>
      <point x="36" y="521" type="line"/>
      <point x="117" y="682" type="line"/>
      <point x="281" y="682" type="line"/>
    </contour>
  </outline>
</glyph>
<glyph name="caron" format="1">
  <advance width="397"/>
  <unicode hex="02C7"/>
  <outline>
    <contour>
      <point x="361" y="682" type="line"/>
      <point x="281" y="521" type="line"/>
      <point x="117" y="521" type="line"/>
      <point x="36" y="682" type="line"/>
      <point x="159" y="682" type="line"/>
      <point x="199" y="591" type="line"/>
      <point x="239" y="682" type="line"/>
    </contour>
  </outline>
</glyph>
<glyph name="breve" format="1">
  <advance width="397"/>
  <unicode hex="02D8"/>
  <outline>
    <contour>
      <point x="366" y="556" type="line"/>
      <point x="321" y="533"/>
      <point x="265" y="521"/>
      <point x="199" y="521" type="curve" smooth="yes"/>
      <point x="133" y="521"/>
      <point x="76" y="532"/>
      <point x="31" y="556" type="curve"/>
      <point x="31" y="682" type="line"/>
      <point x="164" y="682" type="line"/>
      <point x="164" y="614" type="line"/>
      <point x="174" y="611"/>
      <point x="185" y="609"/>
      <point x="199" y="609" type="curve" smooth="yes"/>
      <point x="213" y="609"/>
      <point x="224" y="611"/>
      <point x="233" y="614" type="curve"/>
      <point x="233" y="682" type="line"/>
      <point x="366" y="682" type="line"/>
    </contour>
  </outline>
</glyph>
<glyph name="dotaccent" format="1">
  <advance width="397"/>
  <unicode hex="02D9"/>
  <outline>
    <contour>
      <point x="268" y="521" type="line"/>
      <point x="130" y="521" type="line"/>
      <point x="130" y="669" type="line"/>
      <point x="268" y="669" type="line"/>
    </contour>
  </outline>
</glyph>
<glyph name="ring" format="1">
  <advance width="397"/>
  <unicode hex="02DA"/>
  <outline>
    <contour>
      <point x="350" y="550" type="line"/>
      <point x="309" y="531"/>
      <point x="258" y="521"/>
      <point x="199" y="521" type="curve" smooth="yes"/>
      <point x="140" y="521"/>
      <point x="89" y="530"/>
      <point x="47" y="550" type="curve"/>
      <point x="47" y="669" type="line"/>
      <point x="89" y="689"/>
      <point x="140" y="698"/>
      <point x="199" y="698" type="curve" smooth="yes"/>
      <point x="258" y="698"/>
      <point x="309" y="688"/>
      <point x="350" y="669" type="curve"/>
    </contour>
    <contour>
      <point x="236" y="587" type="curve"/>
      <point x="236" y="632" type="line"/>
      <point x="226" y="635"/>
      <point x="213" y="637"/>
      <point x="199" y="637" type="curve" smooth="yes"/>
      <point x="185" y="637"/>
      <point x="172" y="635"/>
      <point x="162" y="632" type="curve"/>
      <point x="162" y="587" type="line"/>
      <point x="172" y="584"/>
      <point x="185" y="582"/>
      <point x="199" y="582" type="curve" smooth="yes"/>
      <point x="213" y="582"/>
      <point x="226" y="584"/>
    </contour>
  </outline>
</glyph>
<glyph name="ogonek" format="1">
  <advance width="397"/>
  <unicode hex="02DB"/>
  <outline>
    <contour>
      <point x="308" y="-135" type="line"/>
      <point x="294" y="-135" type="line" smooth="yes"/>
      <point x="235" y="-135"/>
      <point x="184" y="-125"/>
      <point x="141" y="-99" type="curve"/>
      <point x="141" y="10" type="line"/>
      <point x="256" y="10" type="line"/>
      <point x="256" y="-39" type="line"/>
      <point x="265" y="-46"/>
      <point x="279" y="-48"/>
      <point x="294" y="-48" type="curve" smooth="yes"/>
      <point x="308" y="-48" type="line"/>
    </contour>
  </outline>
</glyph>
<glyph name="tilde" format="1">
  <advance width="397"/>
  <unicode hex="02DC"/>
  <outline>
    <contour>
      <point x="366" y="682" type="line"/>
      <point x="336" y="521" type="line"/>
      <point x="231" y="521" type="line"/>
      <point x="150" y="584" type="line"/>
      <point x="137" y="521" type="line"/>
      <point x="31" y="521" type="line"/>
      <point x="61" y="682" type="line"/>
      <point x="167" y="682" type="line"/>
      <point x="247" y="619" type="line"/>
      <point x="260" y="682" type="line"/>
    </contour>
  </outline>
</glyph>
<glyph name="hungarumlaut" format="1">
  <advance width="397"/>
  <unicode hex="02DD"/>
  <outline>
    <contour>
      <point x="393" y="682" type="line"/>
      <point x="306" y="521" type="line"/>
      <point x="178" y="521" type="line"/>
      <point x="258" y="682" type="line"/>
    </contour>
    <contour>
      <point x="219" y="682" type="line"/>
      <point x="135" y="521" type="line"/>
      <point x="4" y="521" type="line"/>
      <point x="82" y="682" type="line"/>
    </contour>
  </outline>
</glyph>
<glyph name="endash" format="1">
  <advance width="353"/>
  <unicode hex="2013"/>
  <outline>
    <contour>
      <point x="336" y="244" type="line"/>
      <point x="17" y="244" type="line"/>
      <point x="17" y="367" type="line"/>
      <point x="336" y="367" type="line"/>
    </contour>
  </outline>
</glyph>
<glyph name="emdash" format="1">
  <advance width="458"/>
  <unicode hex="2014"/>
  <outline>
    <contour>
      <point x="441" y="244" type="line"/>
      <point x="17" y="244" type="line"/>
      <point x="17" y="367" type="line"/>
      <point x="441" y="367" type="line"/>
    </contour>
  </outline>
</glyph>
<glyph name="quoteleft" format="1">
  <advance width="218"/>
  <unicode hex="2018"/>
  <unicode hex="02BB"/>
  <outline>
    <contour>
      <point x="198" y="435" type="line"/>
      <point x="48" y="435" type="line"/>
      <point x="20" y="720" type="line"/>
      <point x="170" y="720" type="line"/>
    </contour>
  </outline>
</glyph>
<glyph name="quoteright" format="1">
  <advance width="218"/>
  <unicode hex="2019"/>
  <unicode hex="02BC"/>
  <outline>
    <contour>
      <point x="198" y="720" type="line"/>
      <point x="169" y="435" type="line"/>
      <point x="19" y="435" type="line"/>
      <point x="48" y="720" type="line"/>
    </contour>
  </outline>
</glyph>
<glyph name="quotesinglbase" format="1">
  <advance width="218"/>
  <unicode hex="201A"/>
  <outline>
    <contour>
      <point x="193" y="162" type="line"/>
      <point x="164" y="-108" type="line"/>
      <point x="14" y="-108" type="line"/>
      <point x="43" y="162" type="line"/>
    </contour>
  </outline>
</glyph>
<glyph name="quotedblleft" format="1">
  <advance width="425"/>
  <unicode hex="201C"/>
  <outline>
    <contour>
      <point x="405" y="435" type="line"/>
      <point x="256" y="435" type="line"/>
      <point x="228" y="720" type="line"/>
      <point x="377" y="720" type="line"/>
    </contour>
    <contour>
      <point x="197" y="435" type="line"/>
      <point x="48" y="435" type="line"/>
      <point x="20" y="720" type="line"/>
      <point x="169" y="720" type="line"/>
    </contour>
  </outline>
</glyph>
<glyph name="quotedblright" format="1">
  <advance width="425"/>
  <unicode hex="201D"/>
  <outline>
    <contour>
      <point x="405" y="720" type="line"/>
      <point x="377" y="435" type="line"/>
      <point x="228" y="435" type="line"/>
      <point x="256" y="720" type="line"/>
    </contour>
    <contour>
      <point x="197" y="720" type="line"/>
      <point x="169" y="435" type="line"/>
      <point x="20" y="435" type="line"/>
      <point x="48" y="720" type="line"/>
    </contour>
  </outline>
</glyph>
<glyph name="quotedblbase" format="1">
  <advance width="425"/>
  <unicode hex="201E"/>
  <outline>
    <contour>
      <point x="400" y="162" type="line"/>
      <point x="372" y="-108" type="line"/>
      <point x="223" y="-108" type="line"/>
      <point x="251" y="162" type="line"/>
    </contour>
    <contour>
      <point x="193" y="162" type="line"/>
      <point x="164" y="-108" type="line"/>
      <point x="15" y="-108" type="line"/>
      <point x="43" y="162" type="line"/>
    </contour>
  </outline>
</glyph>
<glyph name="dagger" format="1">
  <advance width="344"/>
  <unicode hex="2020"/>
  <outline>
    <contour>
      <point x="330" y="371" type="line"/>
      <point x="251" y="371" type="line"/>
      <point x="251" y="0" type="line"/>
      <point x="92" y="0" type="line"/>
      <point x="92" y="371" type="line"/>
      <point x="14" y="371" type="line"/>
      <point x="14" y="497" type="line"/>
      <point x="92" y="497" type="line"/>
      <point x="92" y="720" type="line"/>
      <point x="251" y="720" type="line"/>
      <point x="251" y="497" type="line"/>
      <point x="330" y="497" type="line"/>
    </contour>
  </outline>
</glyph>
<glyph name="daggerdbl" format="1">
  <advance width="344"/>
  <unicode hex="2021"/>
  <outline>
    <contour>
      <point x="330" y="186" type="line"/>
      <point x="250" y="186" type="line"/>
      <point x="250" y="0" type="line"/>
      <point x="94" y="0" type="line"/>
      <point x="94" y="186" type="line"/>
      <point x="14" y="186" type="line"/>
      <point x="14" y="307" type="line"/>
      <point x="94" y="307" type="line"/>
      <point x="94" y="384" type="line"/>
      <point x="14" y="384" type="line"/>
      <point x="14" y="505" type="line"/>
      <point x="94" y="505" type="line"/>
      <point x="94" y="720" type="line"/>
      <point x="250" y="720" type="line"/>
      <point x="250" y="505" type="line"/>
      <point x="330" y="505" type="line"/>
      <point x="330" y="384" type="line"/>
      <point x="250" y="384" type="line"/>
      <point x="250" y="307" type="line"/>
      <point x="330" y="307" type="line"/>
    </contour>
  </outline>
</glyph>
<glyph name="bullet" format="1">
  <advance width="418"/>
  <unicode hex="2022"/>
  <outline>
    <contour>
      <point x="377" y="205" type="line"/>
      <point x="331" y="179"/>
      <point x="274" y="167"/>
      <point x="209" y="167" type="curve" smooth="yes"/>
      <point x="145" y="167"/>
      <point x="88" y="179"/>
      <point x="41" y="205" type="curve"/>
      <point x="41" y="534" type="line"/>
      <point x="88" y="560"/>
      <point x="144" y="572"/>
      <point x="209" y="572" type="curve" smooth="yes"/>
      <point x="274" y="572"/>
      <point x="330" y="560"/>
      <point x="377" y="534" type="curve"/>
    </contour>
  </outline>
</glyph>
<glyph name="ellipsis" format="1">
  <advance width="624"/>
  <unicode hex="2026"/>
  <outline>
    <contour>
      <point x="595" y="0" type="line"/>
      <point x="445" y="0" type="line"/>
      <point x="445" y="152" type="line"/>
      <point x="595" y="152" type="line"/>
    </contour>
    <contour>
      <point x="387" y="0" type="line"/>
      <point x="237" y="0" type="line"/>
      <point x="237" y="152" type="line"/>
      <point x="387" y="152" type="line"/>
    </contour>
    <contour>
      <point x="179" y="0" type="line"/>
      <point x="29" y="0" type="line"/>
      <point x="29" y="152" type="line"/>
      <point x="179" y="152" type="line"/>
    </contour>
  </outline>
</glyph>
<glyph name="perthousand" format="1">
  <advance width="1291"/>
  <unicode hex="2030"/>
  <outline>
    <contour>
      <point x="1260" y="33" type="line"/>
      <point x="1214" y="6"/>
      <point x="1154" y="-8"/>
      <point x="1097" y="-8" type="curve" smooth="yes"/>
      <point x="1040" y="-8"/>
      <point x="981" y="5"/>
      <point x="934" y="33" type="curve"/>
      <point x="934" y="359" type="line"/>
      <point x="980" y="386"/>
      <point x="1040" y="400"/>
      <point x="1097" y="400" type="curve" smooth="yes"/>
      <point x="1154" y="400"/>
      <point x="1214" y="386"/>
      <point x="1260" y="359" type="curve"/>
    </contour>
    <contour>
      <point x="892" y="33" type="line"/>
      <point x="846" y="6"/>
      <point x="786" y="-8"/>
      <point x="729" y="-8" type="curve" smooth="yes"/>
      <point x="672" y="-8"/>
      <point x="612" y="5"/>
      <point x="566" y="33" type="curve"/>
      <point x="566" y="359" type="line"/>
      <point x="612" y="386"/>
      <point x="671" y="400"/>
      <point x="729" y="400" type="curve" smooth="yes"/>
      <point x="785" y="400"/>
      <point x="845" y="386"/>
      <point x="892" y="359" type="curve"/>
    </contour>
    <contour>
      <point x="624" y="720" type="line"/>
      <point x="447" y="0" type="line"/>
      <point x="298" y="0" type="line"/>
      <point x="475" y="720" type="line"/>
    </contour>
    <contour>
      <point x="357" y="361" type="line"/>
      <point x="311" y="335"/>
      <point x="252" y="320"/>
      <point x="194" y="320" type="curve" smooth="yes"/>
      <point x="137" y="320"/>
      <point x="78" y="335"/>
      <point x="31" y="361" type="curve"/>
      <point x="31" y="688" type="line"/>
      <point x="77" y="715"/>
      <point x="137" y="729"/>
      <point x="194" y="729" type="curve" smooth="yes"/>
      <point x="251" y="729"/>
      <point x="310" y="715"/>
      <point x="357" y="688" type="curve"/>
    </contour>
    <contour>
      <point x="1137" y="91" type="curve"/>
      <point x="1137" y="300" type="line"/>
      <point x="1126" y="305"/>
      <point x="1113" y="308"/>
      <point x="1097" y="308" type="curve" smooth="yes"/>
      <point x="1081" y="308"/>
      <point x="1069" y="305"/>
      <point x="1058" y="300" type="curve"/>
      <point x="1058" y="91" type="line"/>
      <point x="1069" y="85"/>
      <point x="1081" y="83"/>
      <point x="1097" y="83" type="curve" smooth="yes"/>
      <point x="1113" y="83"/>
      <point x="1126" y="85"/>
    </contour>
    <contour>
      <point x="768" y="91" type="curve"/>
      <point x="768" y="300" type="line"/>
      <point x="757" y="305"/>
      <point x="745" y="308"/>
      <point x="729" y="308" type="curve" smooth="yes"/>
      <point x="713" y="308"/>
      <point x="700" y="305"/>
      <point x="689" y="300" type="curve"/>
      <point x="689" y="91" type="line"/>
      <point x="700" y="85"/>
      <point x="713" y="83"/>
      <point x="729" y="83" type="curve" smooth="yes"/>
      <point x="745" y="83"/>
      <point x="757" y="85"/>
    </contour>
    <contour>
      <point x="233" y="419" type="curve"/>
      <point x="233" y="628" type="line"/>
      <point x="222" y="634"/>
      <point x="210" y="636"/>
      <point x="194" y="636" type="curve" smooth="yes"/>
      <point x="178" y="636"/>
      <point x="166" y="634"/>
      <point x="154" y="628" type="curve"/>
      <point x="154" y="419" type="line"/>
      <point x="166" y="414"/>
      <point x="178" y="412"/>
      <point x="194" y="412" type="curve" smooth="yes"/>
      <point x="210" y="412"/>
      <point x="222" y="414"/>
    </contour>
  </outline>
</glyph>
<glyph name="guilsinglleft" format="1">
  <advance width="262"/>
  <unicode hex="2039"/>
  <outline>
    <contour>
      <point x="237" y="13" type="line"/>
      <point x="19" y="176" type="line"/>
      <point x="19" y="304" type="line"/>
      <point x="237" y="467" type="line"/>
      <point x="237" y="321" type="line"/>
      <point x="124" y="240" type="line"/>
      <point x="237" y="160" type="line"/>
    </contour>
  </outline>
</glyph>
<glyph name="guilsinglright" format="1">
  <advance width="262"/>
  <unicode hex="203A"/>
  <outline>
    <contour>
      <point x="243" y="176" type="line"/>
      <point x="25" y="13" type="line"/>
      <point x="25" y="160" type="line"/>
      <point x="138" y="240" type="line"/>
      <point x="25" y="321" type="line"/>
      <point x="25" y="467" type="line"/>
      <point x="243" y="304" type="line"/>
    </contour>
  </outline>
</glyph>
<glyph name="fraction" format="1">
  <advance width="347"/>
  <unicode hex="2044"/>
  <unicode hex="2215"/>
  <outline>
    <contour>
      <point x="338" y="720" type="line"/>
      <point x="174" y="0" type="line"/>
      <point x="9" y="0" type="line"/>
      <point x="172" y="720" type="line"/>
    </contour>
  </outline>
</glyph>
<glyph name="Euro" format="1">
  <advance width="531"/>
  <unicode hex="20AC"/>
  <outline>
    <contour>
      <point x="210" y="378" type="line"/>
      <point x="210" y="343" type="line"/>
      <point x="302" y="343" type="line"/>
      <point x="302" y="230" type="line"/>
      <point x="210" y="230" type="line"/>
      <point x="210" y="121" type="line"/>
      <point x="227" y="113"/>
      <point x="245" y="109"/>
      <point x="271" y="109" type="curve" smooth="yes"/>
      <point x="297" y="109"/>
      <point x="315" y="113"/>
      <point x="332" y="121" type="curve"/>
      <point x="332" y="286" type="line"/>
      <point x="491" y="286" type="line"/>
      <point x="491" y="44" type="line"/>
      <point x="431" y="9"/>
      <point x="350" y="-9"/>
      <point x="271" y="-9" type="curve" smooth="yes"/>
      <point x="192" y="-9"/>
      <point x="112" y="9"/>
      <point x="51" y="44" type="curve"/>
      <point x="51" y="230" type="line"/>
      <point x="27" y="230" type="line"/>
      <point x="27" y="343" type="line"/>
      <point x="51" y="343" type="line"/>
      <point x="51" y="378" type="line"/>
      <point x="27" y="378" type="line"/>
      <point x="27" y="491" type="line"/>
      <point x="51" y="491" type="line"/>
      <point x="51" y="677" type="line"/>
      <point x="112" y="711"/>
      <point x="192" y="729"/>
      <point x="271" y="729" type="curve" smooth="yes"/>
      <point x="350" y="729"/>
      <point x="431" y="711"/>
      <point x="491" y="677" type="curve"/>
      <point x="491" y="435" type="line"/>
      <point x="332" y="435" type="line"/>
      <point x="332" y="599" type="line"/>
      <point x="315" y="607"/>
      <point x="297" y="610"/>
      <point x="271" y="610" type="curve" smooth="yes"/>
      <point x="245" y="610"/>
      <point x="227" y="607"/>
      <point x="210" y="599" type="curve"/>
      <point x="210" y="491" type="line"/>
      <point x="302" y="491" type="line"/>
      <point x="302" y="378" type="line"/>
    </contour>
  </outline>
</glyph>
<glyph name="uni2117" format="1">
  <advance width="631"/>
  <unicode hex="2117"/>
  <outline>
    <contour>
      <point x="595" y="53" type="line"/>
      <point x="520" y="10"/>
      <point x="419" y="-9"/>
      <point x="316" y="-9" type="curve" smooth="yes"/>
      <point x="211" y="-9"/>
      <point x="109" y="10"/>
      <point x="35" y="53" type="curve"/>
      <point x="35" y="667" type="line"/>
      <point x="109" y="710"/>
      <point x="211" y="729"/>
      <point x="316" y="729" type="curve" smooth="yes"/>
      <point x="419" y="729"/>
      <point x="520" y="710"/>
      <point x="595" y="667" type="curve"/>
    </contour>
    <contour>
      <point x="508" y="104" type="curve"/>
      <point x="508" y="616" type="line"/>
      <point x="449" y="642"/>
      <point x="382" y="654"/>
      <point x="315" y="654" type="curve" smooth="yes"/>
      <point x="250" y="654"/>
      <point x="182" y="643"/>
      <point x="123" y="616" type="curve"/>
      <point x="123" y="104" type="line"/>
      <point x="182" y="77"/>
      <point x="250" y="66"/>
      <point x="315" y="66" type="curve" smooth="yes"/>
      <point x="382" y="66"/>
      <point x="449" y="78"/>
    </contour>
    <contour>
      <point x="456" y="331" type="line"/>
      <point x="420" y="305"/>
      <point x="373" y="291"/>
      <point x="311" y="291" type="curve" smooth="yes"/>
      <point x="288" y="291" type="line"/>
      <point x="288" y="116" type="line"/>
      <point x="182" y="116" type="line"/>
      <point x="182" y="604" type="line"/>
      <point x="311" y="604" type="line" smooth="yes"/>
      <point x="373" y="604"/>
      <point x="420" y="590"/>
      <point x="456" y="564" type="curve"/>
    </contour>
    <contour>
      <point x="352" y="376" type="curve"/>
      <point x="352" y="520" type="line"/>
      <point x="343" y="526"/>
      <point x="331" y="529"/>
      <point x="311" y="529" type="curve" smooth="yes"/>
      <point x="287" y="529" type="line"/>
      <point x="287" y="367" type="line"/>
      <point x="311" y="367" type="line" smooth="yes"/>
      <point x="330" y="367"/>
      <point x="342" y="370"/>
    </contour>
  </outline>
</glyph>
<glyph name="trademark" format="1">
  <advance width="728"/>
  <unicode hex="2122"/>
  <outline>
    <contour>
      <point x="703" y="291" type="line"/>
      <point x="600" y="291" type="line"/>
      <point x="600" y="635" type="line"/>
      <point x="588" y="639"/>
      <point x="570" y="642"/>
      <point x="551" y="643" type="curve"/>
      <point x="551" y="291" type="line"/>
      <point x="447" y="291" type="line"/>
      <point x="447" y="643" type="line"/>
      <point x="428" y="642"/>
      <point x="410" y="639"/>
      <point x="398" y="635" type="curve"/>
      <point x="398" y="291" type="line"/>
      <point x="295" y="291" type="line"/>
      <point x="295" y="690" type="line"/>
      <point x="351" y="715"/>
      <point x="420" y="725"/>
      <point x="499" y="725" type="curve" smooth="yes"/>
      <point x="578" y="725"/>
      <point x="647" y="715"/>
      <point x="703" y="690" type="curve"/>
    </contour>
    <contour>
      <point x="263" y="633" type="line"/>
      <point x="189" y="633" type="line"/>
      <point x="189" y="291" type="line"/>
      <point x="82" y="291" type="line"/>
      <point x="82" y="633" type="line"/>
      <point x="7" y="633" type="line"/>
      <point x="7" y="720" type="line"/>
      <point x="263" y="720" type="line"/>
    </contour>
  </outline>
</glyph>
<glyph name="radical" format="1">
  <advance width="477"/>
  <unicode hex="221A"/>
  <outline>
    <contour>
      <point x="461" y="720" type="line"/>
      <point x="306" y="0" type="line"/>
      <point x="124" y="0" type="line"/>
      <point x="16" y="336" type="line"/>
      <point x="163" y="336" type="line"/>
      <point x="209" y="140" type="line"/>
      <point x="308" y="720" type="line"/>
    </contour>
  </outline>
</glyph>
<glyph name="apple" format="1">
  <advance width="510"/>
  <unicode hex="F8FF"/>
  <outline>
    <contour>
      <point x="475" y="464" type="line"/>
      <point x="324" y="464" type="line"/>
      <point x="324" y="602" type="line"/>
      <point x="305" y="610"/>
      <point x="282" y="614"/>
      <point x="255" y="614" type="curve" smooth="yes"/>
      <point x="228" y="614"/>
      <point x="206" y="610"/>
      <point x="186" y="602" type="curve"/>
      <point x="186" y="464" type="line"/>
      <point x="34" y="464" type="line"/>
      <point x="34" y="674" type="line"/>
      <point x="95" y="711"/>
      <point x="174" y="729"/>
      <point x="255" y="729" type="curve" smooth="yes"/>
      <point x="335" y="729"/>
      <point x="414" y="712"/>
      <point x="475" y="674" type="curve"/>
    </contour>
    <contour>
      <point x="425" y="308" type="line"/>
      <point x="319" y="308" type="line"/>
      <point x="319" y="269" type="line"/>
      <point x="191" y="269" type="line"/>
      <point x="191" y="308" type="line"/>
      <point x="84" y="308" type="line"/>
      <point x="84" y="413" type="line"/>
      <point x="191" y="413" type="line"/>
      <point x="191" y="451" type="line"/>
      <point x="319" y="451" type="line"/>
      <point x="319" y="413" type="line"/>
      <point x="425" y="413" type="line"/>
    </contour>
    <contour>
      <point x="475" y="46" type="line"/>
      <point x="414" y="8"/>
      <point x="335" y="-9"/>
      <point x="255" y="-9" type="curve" smooth="yes"/>
      <point x="174" y="-9"/>
      <point x="95" y="9"/>
      <point x="34" y="46" type="curve"/>
      <point x="34" y="256" type="line"/>
      <point x="186" y="256" type="line"/>
      <point x="186" y="118" type="line"/>
      <point x="206" y="110"/>
      <point x="228" y="106"/>
      <point x="255" y="106" type="curve" smooth="yes"/>
      <point x="282" y="106"/>
      <point x="305" y="110"/>
      <point x="324" y="118" type="curve"/>
      <point x="324" y="256" type="line"/>
      <point x="475" y="256" type="line"/>
    </contour>
  </outline>
</glyph>
<glyph name="fi" format="1">
  <advance width="471"/>
  <unicode hex="FB01"/>
  <outline>
    <contour>
      <point x="439" y="554" type="line"/>
      <point x="296" y="554" type="line"/>
      <point x="296" y="697" type="line"/>
      <point x="439" y="697" type="line"/>
    </contour>
    <contour>
      <point x="438" y="0" type="line"/>
      <point x="297" y="0" type="line"/>
      <point x="297" y="480" type="line"/>
      <point x="438" y="480" type="line"/>
    </contour>
    <contour>
      <point x="257" y="620" type="line"/>
      <point x="228" y="620" type="line" smooth="yes"/>
      <point x="213" y="620"/>
      <point x="198" y="617"/>
      <point x="187" y="611" type="curve"/>
      <point x="187" y="480" type="line"/>
      <point x="251" y="480" type="line"/>
      <point x="251" y="372" type="line"/>
      <point x="187" y="372" type="line"/>
      <point x="187" y="0" type="line"/>
      <point x="47" y="0" type="line"/>
      <point x="47" y="372" type="line"/>
      <point x="19" y="372" type="line"/>
      <point x="19" y="480" type="line"/>
      <point x="47" y="480" type="line"/>
      <point x="47" y="680" type="line"/>
      <point x="92" y="709"/>
      <point x="144" y="723"/>
      <point x="207" y="723" type="curve" smooth="yes"/>
      <point x="257" y="723" type="line"/>
    </contour>
  </outline>
</glyph>
<glyph name="registered" format="1">
  <advance width="631"/>
  <outline>
    <contour>
      <point x="595" y="53" type="line"/>
      <point x="520" y="10"/>
      <point x="419" y="-9"/>
      <point x="316" y="-9" type="curve" smooth="yes"/>
      <point x="211" y="-9"/>
      <point x="109" y="10"/>
      <point x="35" y="53" type="curve"/>
      <point x="35" y="667" type="line"/>
      <point x="109" y="710"/>
      <point x="211" y="729"/>
      <point x="316" y="729" type="curve" smooth="yes"/>
      <point x="419" y="729"/>
      <point x="520" y="710"/>
      <point x="595" y="667" type="curve"/>
    </contour>
    <contour>
      <point x="508" y="104" type="curve"/>
      <point x="508" y="616" type="line"/>
      <point x="449" y="642"/>
      <point x="382" y="654"/>
      <point x="315" y="654" type="curve" smooth="yes"/>
      <point x="250" y="654"/>
      <point x="182" y="643"/>
      <point x="123" y="616" type="curve"/>
      <point x="123" y="104" type="line"/>
      <point x="182" y="77"/>
      <point x="250" y="66"/>
      <point x="315" y="66" type="curve" smooth="yes"/>
      <point x="382" y="66"/>
      <point x="449" y="78"/>
    </contour>
    <contour>
      <point x="455" y="117" type="line"/>
      <point x="349" y="117" type="line"/>
      <point x="349" y="312" type="line"/>
      <point x="339" y="318"/>
      <point x="327" y="321"/>
      <point x="308" y="321" type="curve" smooth="yes"/>
      <point x="282" y="321" type="line"/>
      <point x="282" y="117" type="line"/>
      <point x="176" y="117" type="line"/>
      <point x="176" y="605" type="line"/>
      <point x="310" y="605" type="line" smooth="yes"/>
      <point x="371" y="605"/>
      <point x="418" y="594"/>
      <point x="454" y="568" type="curve"/>
      <point x="454" y="382" type="line"/>
      <point x="440" y="373"/>
      <point x="418" y="366"/>
      <point x="395" y="362" type="curve"/>
      <point x="418" y="358"/>
      <point x="442" y="349"/>
      <point x="455" y="341" type="curve"/>
    </contour>
    <contour>
      <point x="349" y="400" type="curve"/>
      <point x="349" y="527" type="line"/>
      <point x="340" y="533"/>
      <point x="329" y="535"/>
      <point x="310" y="535" type="curve" smooth="yes"/>
      <point x="281" y="535" type="line"/>
      <point x="281" y="392" type="line"/>
      <point x="309" y="392" type="line" smooth="yes"/>
      <point x="328" y="392"/>
      <point x="340" y="395"/>
    </contour>
  </outline>
</glyph>
